<?xml version="1.0" encoding="utf-8" standalone="no"?>
<!DOCTYPE svg PUBLIC "-//W3C//DTD SVG 1.1//EN"
  "http://www.w3.org/Graphics/SVG/1.1/DTD/svg11.dtd">
<svg xmlns:xlink="http://www.w3.org/1999/xlink" width="786.44pt" height="442.955156pt" viewBox="0 0 786.44 442.955156" xmlns="http://www.w3.org/2000/svg" version="1.1">
 <metadata>
  <rdf:RDF xmlns:dc="http://purl.org/dc/elements/1.1/" xmlns:cc="http://creativecommons.org/ns#" xmlns:rdf="http://www.w3.org/1999/02/22-rdf-syntax-ns#">
   <cc:Work>
    <dc:type rdf:resource="http://purl.org/dc/dcmitype/StillImage"/>
    <dc:date>2026-09-10T13:13:19.384482</dc:date>
    <dc:format>image/svg+xml</dc:format>
    <dc:creator>
     <cc:Agent>
      <dc:title>Matplotlib v3.10.6, https://matplotlib.org/</dc:title>
     </cc:Agent>
    </dc:creator>
   </cc:Work>
  </rdf:RDF>
 </metadata>
 <defs>
  <style type="text/css">*{stroke-linejoin: round; stroke-linecap: butt}</style>
 </defs>
 <g id="figure_1">
  <g id="patch_1">
   <path d="M 0 442.955156 
L 786.44 442.955156 
L 786.44 0 
L 0 0 
z
" style="fill: #ffffff"/>
  </g>
  <g id="axes_1">
   <g id="patch_2">
    <path d="M 40.52 163.782699 
L 774.92 163.782699 
L 774.92 29.339062 
L 40.52 29.339062 
z
" style="fill: #ffffff"/>
   </g>
   <g id="PolyCollection_1">
    <path d="M 46.539672 80.244905 
L 46.539672 43.697121 
L 85.321115 43.697121 
L 85.321115 80.244905 
z
" clip-path="url(#p6e05681a7a)" style="fill: #246f91"/>
   </g>
   <g id="PolyCollection_2">
    <path d="M 362.810883 146.814085 
L 362.810883 110.2663 
L 410.151511 110.2663 
L 410.151511 146.814085 
z
" clip-path="url(#p6e05681a7a)" style="fill: #246f91"/>
   </g>
   <g id="PolyCollection_3">
    <path d="M 85.321115 80.244905 
L 85.321115 43.697121 
L 124.102557 43.697121 
L 124.102557 80.244905 
z
" clip-path="url(#p6e05681a7a)" style="fill: #138b83"/>
   </g>
   <g id="PolyCollection_4">
    <path d="M 410.151511 146.814085 
L 410.151511 110.2663 
L 457.492139 110.2663 
L 457.492139 146.814085 
z
" clip-path="url(#p6e05681a7a)" style="fill: #138b83"/>
   </g>
   <g id="PolyCollection_5">
    <path d="M 124.102557 80.244905 
L 124.102557 43.697121 
L 162.883999 43.697121 
L 162.883999 80.244905 
z
" clip-path="url(#p6e05681a7a)" style="fill: #246f91"/>
   </g>
   <g id="PolyCollection_6">
    <path d="M 457.492139 146.814085 
L 457.492139 110.2663 
L 504.832767 110.2663 
L 504.832767 146.814085 
z
" clip-path="url(#p6e05681a7a)" style="fill: #246f91"/>
   </g>
   <g id="PolyCollection_7">
    <path d="M 162.883999 80.244905 
L 162.883999 43.697121 
L 201.665442 43.697121 
L 201.665442 80.244905 
z
" clip-path="url(#p6e05681a7a)" style="fill: #138b83"/>
   </g>
   <g id="PolyCollection_8">
    <path d="M 504.832767 146.814085 
L 504.832767 110.2663 
L 552.173395 110.2663 
L 552.173395 146.814085 
z
" clip-path="url(#p6e05681a7a)" style="fill: #138b83"/>
   </g>
   <g id="PolyCollection_9">
    <path d="M 201.665442 80.244905 
L 201.665442 43.697121 
L 240.446884 43.697121 
L 240.446884 80.244905 
z
" clip-path="url(#p6e05681a7a)" style="fill: #246f91"/>
   </g>
   <g id="PolyCollection_10">
    <path d="M 552.173395 146.814085 
L 552.173395 110.2663 
L 599.514023 110.2663 
L 599.514023 146.814085 
z
" clip-path="url(#p6e05681a7a)" style="fill: #246f91"/>
   </g>
   <g id="PolyCollection_11">
    <path d="M 240.446884 80.244905 
L 240.446884 43.697121 
L 279.228327 43.697121 
L 279.228327 80.244905 
z
" clip-path="url(#p6e05681a7a)" style="fill: #138b83"/>
   </g>
   <g id="PolyCollection_12">
    <path d="M 599.514023 146.814085 
L 599.514023 110.2663 
L 646.854651 110.2663 
L 646.854651 146.814085 
z
" clip-path="url(#p6e05681a7a)" style="fill: #138b83"/>
   </g>
   <g id="PolyCollection_13">
    <path d="M 279.228327 80.244905 
L 279.228327 43.697121 
L 318.009769 43.697121 
L 318.009769 80.244905 
z
" clip-path="url(#p6e05681a7a)" style="fill: #246f91"/>
   </g>
   <g id="PolyCollection_14">
    <path d="M 646.854651 146.814085 
L 646.854651 110.2663 
L 694.195279 110.2663 
L 694.195279 146.814085 
z
" clip-path="url(#p6e05681a7a)" style="fill: #246f91"/>
   </g>
   <g id="PolyCollection_15">
    <path d="M 318.009769 80.244905 
L 318.009769 43.697121 
L 356.791211 43.697121 
L 356.791211 80.244905 
z
" clip-path="url(#p6e05681a7a)" style="fill: #138b83"/>
   </g>
   <g id="PolyCollection_16">
    <path d="M 694.195279 146.814085 
L 694.195279 110.2663 
L 741.535907 110.2663 
L 741.535907 146.814085 
z
" clip-path="url(#p6e05681a7a)" style="fill: #138b83"/>
   </g>
   <g id="matplotlib.axis_1">
    <g id="xtick_1">
     <g id="line2d_1">
      <defs>
       <path id="m6fd03fcf81" d="M 0 0 
L 0 3.5 
" style="stroke: #000000; stroke-width: 0.8"/>
      </defs>
      <g>
       <use xlink:href="#m6fd03fcf81" x="40.52" y="163.782699" style="stroke: #000000; stroke-width: 0.8"/>
      </g>
     </g>
     <g id="text_1">
      <text style="font-size: 11px; font-family: 'Arial Unicode MS'; text-anchor: middle" x="40.52" y="178.656293" transform="rotate(-0 40.52 178.656293)">0</text>
     </g>
    </g>
    <g id="xtick_2">
     <g id="line2d_2">
      <g>
       <use xlink:href="#m6fd03fcf81" x="160.913443" y="163.782699" style="stroke: #000000; stroke-width: 0.8"/>
      </g>
     </g>
     <g id="text_2">
      <text style="font-size: 11px; font-family: 'Arial Unicode MS'; text-anchor: middle" x="160.913443" y="178.656293" transform="rotate(-0 160.913443 178.656293)">100</text>
     </g>
    </g>
    <g id="xtick_3">
     <g id="line2d_3">
      <g>
       <use xlink:href="#m6fd03fcf81" x="281.306885" y="163.782699" style="stroke: #000000; stroke-width: 0.8"/>
      </g>
     </g>
     <g id="text_3">
      <text style="font-size: 11px; font-family: 'Arial Unicode MS'; text-anchor: middle" x="281.306885" y="178.656293" transform="rotate(-0 281.306885 178.656293)">200</text>
     </g>
    </g>
    <g id="xtick_4">
     <g id="line2d_4">
      <g>
       <use xlink:href="#m6fd03fcf81" x="401.700328" y="163.782699" style="stroke: #000000; stroke-width: 0.8"/>
      </g>
     </g>
     <g id="text_4">
      <text style="font-size: 11px; font-family: 'Arial Unicode MS'; text-anchor: middle" x="401.700328" y="178.656293" transform="rotate(-0 401.700328 178.656293)">300</text>
     </g>
    </g>
    <g id="xtick_5">
     <g id="line2d_5">
      <g>
       <use xlink:href="#m6fd03fcf81" x="522.09377" y="163.782699" style="stroke: #000000; stroke-width: 0.8"/>
      </g>
     </g>
     <g id="text_5">
      <text style="font-size: 11px; font-family: 'Arial Unicode MS'; text-anchor: middle" x="522.09377" y="178.656293" transform="rotate(-0 522.09377 178.656293)">400</text>
     </g>
    </g>
    <g id="xtick_6">
     <g id="line2d_6">
      <g>
       <use xlink:href="#m6fd03fcf81" x="642.487213" y="163.782699" style="stroke: #000000; stroke-width: 0.8"/>
      </g>
     </g>
     <g id="text_6">
      <text style="font-size: 11px; font-family: 'Arial Unicode MS'; text-anchor: middle" x="642.487213" y="178.656293" transform="rotate(-0 642.487213 178.656293)">500</text>
     </g>
    </g>
    <g id="xtick_7">
     <g id="line2d_7">
      <g>
       <use xlink:href="#m6fd03fcf81" x="762.880656" y="163.782699" style="stroke: #000000; stroke-width: 0.8"/>
      </g>
     </g>
     <g id="text_7">
      <text style="font-size: 11px; font-family: 'Arial Unicode MS'; text-anchor: middle" x="762.880656" y="178.656293" transform="rotate(-0 762.880656 178.656293)">600</text>
     </g>
    </g>
    <g id="text_8">
     <text style="font-size: 11px; font-family: 'Arial Unicode MS'; text-anchor: middle; fill: #193441" x="407.72" y="193.967386" transform="rotate(-0 407.72 193.967386)">时间 / μs</text>
    </g>
   </g>
   <g id="matplotlib.axis_2">
    <g id="ytick_1">
     <g id="line2d_8">
      <defs>
       <path id="me1bd24c5ad" d="M 0 0 
L -3.5 0 
" style="stroke: #000000; stroke-width: 0.8"/>
      </defs>
      <g>
       <use xlink:href="#me1bd24c5ad" x="40.52" y="128.540192" style="stroke: #000000; stroke-width: 0.8"/>
      </g>
     </g>
     <g id="text_9">
      <text style="font-size: 11px; font-family: 'Arial Unicode MS'; text-anchor: end" x="33.52" y="132.476989" transform="rotate(-0 33.52 132.476989)">激活</text>
     </g>
    </g>
    <g id="ytick_2">
     <g id="line2d_9">
      <g>
       <use xlink:href="#me1bd24c5ad" x="40.52" y="61.971013" style="stroke: #000000; stroke-width: 0.8"/>
      </g>
     </g>
     <g id="text_10">
      <text style="font-size: 11px; font-family: 'Arial Unicode MS'; text-anchor: end" x="33.52" y="65.90781" transform="rotate(-0 33.52 65.90781)">投影</text>
     </g>
    </g>
   </g>
   <g id="line2d_10">
    <path d="M 362.810883 163.782699 
L 362.810883 29.339062 
" clip-path="url(#p6e05681a7a)" style="fill: none; stroke-dasharray: 5.55,2.4; stroke-dashoffset: 0; stroke: #c9782b; stroke-width: 1.5"/>
   </g>
   <g id="patch_3">
    <path d="M 40.52 163.782699 
L 40.52 29.339062 
" style="fill: none; stroke: #000000; stroke-width: 0.8; stroke-linejoin: miter; stroke-linecap: square"/>
   </g>
   <g id="patch_4">
    <path d="M 40.52 163.782699 
L 774.92 163.782699 
" style="fill: none; stroke: #000000; stroke-width: 0.8; stroke-linejoin: miter; stroke-linecap: square"/>
   </g>
   <g id="text_11">
    <text style="font-size: 10px; font-family: 'Arial Unicode MS'; text-anchor: middle; fill: #ffffff" x="65.930393" y="64.553826" transform="rotate(-0 65.930393 64.553826)">0</text>
   </g>
   <g id="text_12">
    <text style="font-size: 10px; font-family: 'Arial Unicode MS'; text-anchor: middle; fill: #ffffff" x="386.481197" y="131.123005" transform="rotate(-0 386.481197 131.123005)">0</text>
   </g>
   <g id="text_13">
    <text style="font-size: 10px; font-family: 'Arial Unicode MS'; text-anchor: middle; fill: #ffffff" x="104.711836" y="64.553826" transform="rotate(-0 104.711836 64.553826)">1</text>
   </g>
   <g id="text_14">
    <text style="font-size: 10px; font-family: 'Arial Unicode MS'; text-anchor: middle; fill: #ffffff" x="433.821825" y="131.123005" transform="rotate(-0 433.821825 131.123005)">1</text>
   </g>
   <g id="text_15">
    <text style="font-size: 10px; font-family: 'Arial Unicode MS'; text-anchor: middle; fill: #ffffff" x="143.493278" y="64.553826" transform="rotate(-0 143.493278 64.553826)">2</text>
   </g>
   <g id="text_16">
    <text style="font-size: 10px; font-family: 'Arial Unicode MS'; text-anchor: middle; fill: #ffffff" x="481.162453" y="131.123005" transform="rotate(-0 481.162453 131.123005)">2</text>
   </g>
   <g id="text_17">
    <text style="font-size: 10px; font-family: 'Arial Unicode MS'; text-anchor: middle; fill: #ffffff" x="182.274721" y="64.553826" transform="rotate(-0 182.274721 64.553826)">3</text>
   </g>
   <g id="text_18">
    <text style="font-size: 10px; font-family: 'Arial Unicode MS'; text-anchor: middle; fill: #ffffff" x="528.503081" y="131.123005" transform="rotate(-0 528.503081 131.123005)">3</text>
   </g>
   <g id="text_19">
    <text style="font-size: 10px; font-family: 'Arial Unicode MS'; text-anchor: middle; fill: #ffffff" x="221.056163" y="64.553826" transform="rotate(-0 221.056163 64.553826)">4</text>
   </g>
   <g id="text_20">
    <text style="font-size: 10px; font-family: 'Arial Unicode MS'; text-anchor: middle; fill: #ffffff" x="575.843709" y="131.123005" transform="rotate(-0 575.843709 131.123005)">4</text>
   </g>
   <g id="text_21">
    <text style="font-size: 10px; font-family: 'Arial Unicode MS'; text-anchor: middle; fill: #ffffff" x="259.837605" y="64.553826" transform="rotate(-0 259.837605 64.553826)">5</text>
   </g>
   <g id="text_22">
    <text style="font-size: 10px; font-family: 'Arial Unicode MS'; text-anchor: middle; fill: #ffffff" x="623.184337" y="131.123005" transform="rotate(-0 623.184337 131.123005)">5</text>
   </g>
   <g id="text_23">
    <text style="font-size: 10px; font-family: 'Arial Unicode MS'; text-anchor: middle; fill: #ffffff" x="298.619048" y="64.553826" transform="rotate(-0 298.619048 64.553826)">6</text>
   </g>
   <g id="text_24">
    <text style="font-size: 10px; font-family: 'Arial Unicode MS'; text-anchor: middle; fill: #ffffff" x="670.524965" y="131.123005" transform="rotate(-0 670.524965 131.123005)">6</text>
   </g>
   <g id="text_25">
    <text style="font-size: 10px; font-family: 'Arial Unicode MS'; text-anchor: middle; fill: #ffffff" x="337.40049" y="64.553826" transform="rotate(-0 337.40049 64.553826)">7</text>
   </g>
   <g id="text_26">
    <text style="font-size: 10px; font-family: 'Arial Unicode MS'; text-anchor: middle; fill: #ffffff" x="717.865593" y="131.123005" transform="rotate(-0 717.865593 131.123005)">7</text>
   </g>
   <g id="text_27">
    <text style="font-size: 14px; font-family: 'Arial Unicode MS'; text-anchor: start; fill: #193441" x="40.52" y="23.339062" transform="rotate(-0 40.52 23.339062)">全部投影完成后开始激活：约 582 μs</text>
   </g>
  </g>
  <g id="axes_2">
   <g id="patch_5">
    <path d="M 40.52 399.059062 
L 774.92 399.059062 
L 774.92 264.615426 
L 40.52 264.615426 
z
" style="fill: #ffffff"/>
   </g>
   <g id="PolyCollection_17">
    <path d="M 46.539672 315.521269 
L 46.539672 278.973484 
L 86.163869 278.973484 
L 86.163869 315.521269 
z
" clip-path="url(#p4281f50c3b)" style="fill: #246f91"/>
   </g>
   <g id="PolyCollection_18">
    <path d="M 86.163869 382.090448 
L 86.163869 345.542664 
L 134.347251 345.542664 
L 134.347251 382.090448 
z
" clip-path="url(#p4281f50c3b)" style="fill: #246f91"/>
   </g>
   <g id="PolyCollection_19">
    <path d="M 86.163869 315.521269 
L 86.163869 278.973484 
L 125.788065 278.973484 
L 125.788065 315.521269 
z
" clip-path="url(#p4281f50c3b)" style="fill: #138b83"/>
   </g>
   <g id="PolyCollection_20">
    <path d="M 134.347251 382.090448 
L 134.347251 345.542664 
L 182.530633 345.542664 
L 182.530633 382.090448 
z
" clip-path="url(#p4281f50c3b)" style="fill: #138b83"/>
   </g>
   <g id="PolyCollection_21">
    <path d="M 125.788065 315.521269 
L 125.788065 278.973484 
L 165.412262 278.973484 
L 165.412262 315.521269 
z
" clip-path="url(#p4281f50c3b)" style="fill: #246f91"/>
   </g>
   <g id="PolyCollection_22">
    <path d="M 182.530633 382.090448 
L 182.530633 345.542664 
L 230.714015 345.542664 
L 230.714015 382.090448 
z
" clip-path="url(#p4281f50c3b)" style="fill: #246f91"/>
   </g>
   <g id="PolyCollection_23">
    <path d="M 165.412262 315.521269 
L 165.412262 278.973484 
L 205.036458 278.973484 
L 205.036458 315.521269 
z
" clip-path="url(#p4281f50c3b)" style="fill: #138b83"/>
   </g>
   <g id="PolyCollection_24">
    <path d="M 230.714015 382.090448 
L 230.714015 345.542664 
L 278.897397 345.542664 
L 278.897397 382.090448 
z
" clip-path="url(#p4281f50c3b)" style="fill: #138b83"/>
   </g>
   <g id="PolyCollection_25">
    <path d="M 205.036458 315.521269 
L 205.036458 278.973484 
L 244.660655 278.973484 
L 244.660655 315.521269 
z
" clip-path="url(#p4281f50c3b)" style="fill: #246f91"/>
   </g>
   <g id="PolyCollection_26">
    <path d="M 278.897397 382.090448 
L 278.897397 345.542664 
L 327.080779 345.542664 
L 327.080779 382.090448 
z
" clip-path="url(#p4281f50c3b)" style="fill: #246f91"/>
   </g>
   <g id="PolyCollection_27">
    <path d="M 244.660655 315.521269 
L 244.660655 278.973484 
L 284.284851 278.973484 
L 284.284851 315.521269 
z
" clip-path="url(#p4281f50c3b)" style="fill: #138b83"/>
   </g>
   <g id="PolyCollection_28">
    <path d="M 327.080779 382.090448 
L 327.080779 345.542664 
L 375.264161 345.542664 
L 375.264161 382.090448 
z
" clip-path="url(#p4281f50c3b)" style="fill: #138b83"/>
   </g>
   <g id="PolyCollection_29">
    <path d="M 284.284851 315.521269 
L 284.284851 278.973484 
L 323.909048 278.973484 
L 323.909048 315.521269 
z
" clip-path="url(#p4281f50c3b)" style="fill: #246f91"/>
   </g>
   <g id="PolyCollection_30">
    <path d="M 375.264161 382.090448 
L 375.264161 345.542664 
L 423.447543 345.542664 
L 423.447543 382.090448 
z
" clip-path="url(#p4281f50c3b)" style="fill: #246f91"/>
   </g>
   <g id="PolyCollection_31">
    <path d="M 323.909048 315.521269 
L 323.909048 278.973484 
L 363.533244 278.973484 
L 363.533244 315.521269 
z
" clip-path="url(#p4281f50c3b)" style="fill: #138b83"/>
   </g>
   <g id="PolyCollection_32">
    <path d="M 423.447543 382.090448 
L 423.447543 345.542664 
L 471.630925 345.542664 
L 471.630925 382.090448 
z
" clip-path="url(#p4281f50c3b)" style="fill: #138b83"/>
   </g>
   <g id="matplotlib.axis_3">
    <g id="xtick_8">
     <g id="line2d_11">
      <g>
       <use xlink:href="#m6fd03fcf81" x="40.52" y="399.059062" style="stroke: #000000; stroke-width: 0.8"/>
      </g>
     </g>
     <g id="text_28">
      <text style="font-size: 11px; font-family: 'Arial Unicode MS'; text-anchor: middle" x="40.52" y="413.932656" transform="rotate(-0 40.52 413.932656)">0</text>
     </g>
    </g>
    <g id="xtick_9">
     <g id="line2d_12">
      <g>
       <use xlink:href="#m6fd03fcf81" x="160.913443" y="399.059062" style="stroke: #000000; stroke-width: 0.8"/>
      </g>
     </g>
     <g id="text_29">
      <text style="font-size: 11px; font-family: 'Arial Unicode MS'; text-anchor: middle" x="160.913443" y="413.932656" transform="rotate(-0 160.913443 413.932656)">100</text>
     </g>
    </g>
    <g id="xtick_10">
     <g id="line2d_13">
      <g>
       <use xlink:href="#m6fd03fcf81" x="281.306885" y="399.059062" style="stroke: #000000; stroke-width: 0.8"/>
      </g>
     </g>
     <g id="text_30">
      <text style="font-size: 11px; font-family: 'Arial Unicode MS'; text-anchor: middle" x="281.306885" y="413.932656" transform="rotate(-0 281.306885 413.932656)">200</text>
     </g>
    </g>
    <g id="xtick_11">
     <g id="line2d_14">
      <g>
       <use xlink:href="#m6fd03fcf81" x="401.700328" y="399.059062" style="stroke: #000000; stroke-width: 0.8"/>
      </g>
     </g>
     <g id="text_31">
      <text style="font-size: 11px; font-family: 'Arial Unicode MS'; text-anchor: middle" x="401.700328" y="413.932656" transform="rotate(-0 401.700328 413.932656)">300</text>
     </g>
    </g>
    <g id="xtick_12">
     <g id="line2d_15">
      <g>
       <use xlink:href="#m6fd03fcf81" x="522.09377" y="399.059062" style="stroke: #000000; stroke-width: 0.8"/>
      </g>
     </g>
     <g id="text_32">
      <text style="font-size: 11px; font-family: 'Arial Unicode MS'; text-anchor: middle" x="522.09377" y="413.932656" transform="rotate(-0 522.09377 413.932656)">400</text>
     </g>
    </g>
    <g id="xtick_13">
     <g id="line2d_16">
      <g>
       <use xlink:href="#m6fd03fcf81" x="642.487213" y="399.059062" style="stroke: #000000; stroke-width: 0.8"/>
      </g>
     </g>
     <g id="text_33">
      <text style="font-size: 11px; font-family: 'Arial Unicode MS'; text-anchor: middle" x="642.487213" y="413.932656" transform="rotate(-0 642.487213 413.932656)">500</text>
     </g>
    </g>
    <g id="xtick_14">
     <g id="line2d_17">
      <g>
       <use xlink:href="#m6fd03fcf81" x="762.880656" y="399.059062" style="stroke: #000000; stroke-width: 0.8"/>
      </g>
     </g>
     <g id="text_34">
      <text style="font-size: 11px; font-family: 'Arial Unicode MS'; text-anchor: middle" x="762.880656" y="413.932656" transform="rotate(-0 762.880656 413.932656)">600</text>
     </g>
    </g>
    <g id="text_35">
     <text style="font-size: 11px; font-family: 'Arial Unicode MS'; text-anchor: middle; fill: #193441" x="407.72" y="429.24375" transform="rotate(-0 407.72 429.24375)">时间 / μs</text>
    </g>
   </g>
   <g id="matplotlib.axis_4">
    <g id="ytick_3">
     <g id="line2d_18">
      <g>
       <use xlink:href="#me1bd24c5ad" x="40.52" y="363.816556" style="stroke: #000000; stroke-width: 0.8"/>
      </g>
     </g>
     <g id="text_36">
      <text style="font-size: 11px; font-family: 'Arial Unicode MS'; text-anchor: end" x="33.52" y="367.753353" transform="rotate(-0 33.52 367.753353)">激活</text>
     </g>
    </g>
    <g id="ytick_4">
     <g id="line2d_19">
      <g>
       <use xlink:href="#me1bd24c5ad" x="40.52" y="297.247377" style="stroke: #000000; stroke-width: 0.8"/>
      </g>
     </g>
     <g id="text_37">
      <text style="font-size: 11px; font-family: 'Arial Unicode MS'; text-anchor: end" x="33.52" y="301.184174" transform="rotate(-0 33.52 301.184174)">投影</text>
     </g>
    </g>
   </g>
   <g id="line2d_20">
    <path d="M 86.163869 399.059062 
L 86.163869 264.615426 
" clip-path="url(#p4281f50c3b)" style="fill: none; stroke-dasharray: 5.55,2.4; stroke-dashoffset: 0; stroke: #c9782b; stroke-width: 1.5"/>
   </g>
   <g id="patch_6">
    <path d="M 40.52 399.059062 
L 40.52 264.615426 
" style="fill: none; stroke: #000000; stroke-width: 0.8; stroke-linejoin: miter; stroke-linecap: square"/>
   </g>
   <g id="patch_7">
    <path d="M 40.52 399.059062 
L 774.92 399.059062 
" style="fill: none; stroke: #000000; stroke-width: 0.8; stroke-linejoin: miter; stroke-linecap: square"/>
   </g>
   <g id="text_38">
    <text style="font-size: 10px; font-family: 'Arial Unicode MS'; text-anchor: middle; fill: #ffffff" x="66.35177" y="299.830189" transform="rotate(-0 66.35177 299.830189)">0</text>
   </g>
   <g id="text_39">
    <text style="font-size: 10px; font-family: 'Arial Unicode MS'; text-anchor: middle; fill: #ffffff" x="110.25556" y="366.399368" transform="rotate(-0 110.25556 366.399368)">0</text>
   </g>
   <g id="text_40">
    <text style="font-size: 10px; font-family: 'Arial Unicode MS'; text-anchor: middle; fill: #ffffff" x="105.975967" y="299.830189" transform="rotate(-0 105.975967 299.830189)">1</text>
   </g>
   <g id="text_41">
    <text style="font-size: 10px; font-family: 'Arial Unicode MS'; text-anchor: middle; fill: #ffffff" x="158.438942" y="366.399368" transform="rotate(-0 158.438942 366.399368)">1</text>
   </g>
   <g id="text_42">
    <text style="font-size: 10px; font-family: 'Arial Unicode MS'; text-anchor: middle; fill: #ffffff" x="145.600163" y="299.830189" transform="rotate(-0 145.600163 299.830189)">2</text>
   </g>
   <g id="text_43">
    <text style="font-size: 10px; font-family: 'Arial Unicode MS'; text-anchor: middle; fill: #ffffff" x="206.622324" y="366.399368" transform="rotate(-0 206.622324 366.399368)">2</text>
   </g>
   <g id="text_44">
    <text style="font-size: 10px; font-family: 'Arial Unicode MS'; text-anchor: middle; fill: #ffffff" x="185.22436" y="299.830189" transform="rotate(-0 185.22436 299.830189)">3</text>
   </g>
   <g id="text_45">
    <text style="font-size: 10px; font-family: 'Arial Unicode MS'; text-anchor: middle; fill: #ffffff" x="254.805706" y="366.399368" transform="rotate(-0 254.805706 366.399368)">3</text>
   </g>
   <g id="text_46">
    <text style="font-size: 10px; font-family: 'Arial Unicode MS'; text-anchor: middle; fill: #ffffff" x="224.848556" y="299.830189" transform="rotate(-0 224.848556 299.830189)">4</text>
   </g>
   <g id="text_47">
    <text style="font-size: 10px; font-family: 'Arial Unicode MS'; text-anchor: middle; fill: #ffffff" x="302.989088" y="366.399368" transform="rotate(-0 302.989088 366.399368)">4</text>
   </g>
   <g id="text_48">
    <text style="font-size: 10px; font-family: 'Arial Unicode MS'; text-anchor: middle; fill: #ffffff" x="264.472753" y="299.830189" transform="rotate(-0 264.472753 299.830189)">5</text>
   </g>
   <g id="text_49">
    <text style="font-size: 10px; font-family: 'Arial Unicode MS'; text-anchor: middle; fill: #ffffff" x="351.17247" y="366.399368" transform="rotate(-0 351.17247 366.399368)">5</text>
   </g>
   <g id="text_50">
    <text style="font-size: 10px; font-family: 'Arial Unicode MS'; text-anchor: middle; fill: #ffffff" x="304.096949" y="299.830189" transform="rotate(-0 304.096949 299.830189)">6</text>
   </g>
   <g id="text_51">
    <text style="font-size: 10px; font-family: 'Arial Unicode MS'; text-anchor: middle; fill: #ffffff" x="399.355852" y="366.399368" transform="rotate(-0 399.355852 366.399368)">6</text>
   </g>
   <g id="text_52">
    <text style="font-size: 10px; font-family: 'Arial Unicode MS'; text-anchor: middle; fill: #ffffff" x="343.721146" y="299.830189" transform="rotate(-0 343.721146 299.830189)">7</text>
   </g>
   <g id="text_53">
    <text style="font-size: 10px; font-family: 'Arial Unicode MS'; text-anchor: middle; fill: #ffffff" x="447.539234" y="366.399368" transform="rotate(-0 447.539234 366.399368)">7</text>
   </g>
   <g id="text_54">
    <text style="font-size: 14px; font-family: 'Arial Unicode MS'; text-anchor: start; fill: #193441" x="40.52" y="258.615426" transform="rotate(-0 40.52 258.615426)">逐块开始激活：约 358 μs</text>
   </g>
  </g>
 </g>
 <defs>
  <clipPath id="p6e05681a7a">
   <rect x="40.52" y="29.339062" width="734.4" height="134.443636"/>
  </clipPath>
  <clipPath id="p4281f50c3b">
   <rect x="40.52" y="264.615426" width="734.4" height="134.443636"/>
  </clipPath>
 </defs>
</svg>
