<?xml version="1.0" encoding="utf-8" standalone="no"?>
<!DOCTYPE svg PUBLIC "-//W3C//DTD SVG 1.1//EN"
  "http://www.w3.org/Graphics/SVG/1.1/DTD/svg11.dtd">
<svg xmlns:xlink="http://www.w3.org/1999/xlink" width="910.8pt" height="565.92pt" viewBox="0 0 910.8 565.92" xmlns="http://www.w3.org/2000/svg" version="1.1">
 <metadata>
  <rdf:RDF xmlns:dc="http://purl.org/dc/elements/1.1/" xmlns:cc="http://creativecommons.org/ns#" xmlns:rdf="http://www.w3.org/1999/02/22-rdf-syntax-ns#">
   <cc:Work>
    <dc:type rdf:resource="http://purl.org/dc/dcmitype/StillImage"/>
    <dc:date>2026-09-10T11:50:00.350080</dc:date>
    <dc:format>image/svg+xml</dc:format>
    <dc:creator>
     <cc:Agent>
      <dc:title>Matplotlib v3.11.1, https://matplotlib.org/</dc:title>
     </cc:Agent>
    </dc:creator>
   </cc:Work>
  </rdf:RDF>
 </metadata>
 <defs>
  <style type="text/css">*{stroke-linejoin: round; stroke-linecap: butt}</style>
 </defs>
 <g id="figure_1">
  <g id="patch_1">
   <path d="M 0 565.92 
L 910.8 565.92 
L 910.8 0 
L 0 0 
z
" style="fill: #ffffff"/>
  </g>
  <g id="axes_1">
   <g id="patch_2">
    <path d="M 37.476 143.61408 
L 277.56 143.61408 
Q 285.5628 143.61408 285.5628 138.7152 
L 285.5628 67.9536 
Q 285.5628 63.05472 277.56 63.05472 
L 37.476 63.05472 
Q 29.4732 63.05472 29.4732 67.9536 
L 29.4732 138.7152 
Q 29.4732 143.61408 37.476 143.61408 
z
" clip-path="url(#p20885adbd4)" style="fill: #eaf5f1; stroke: #c3d0d7; stroke-width: 1.1; stroke-linejoin: miter"/>
   </g>
   <g id="patch_3">
    <path d="M 357.588 143.61408 
L 553.212 143.61408 
Q 561.2148 143.61408 561.2148 138.7152 
L 561.2148 67.9536 
Q 561.2148 63.05472 553.212 63.05472 
L 357.588 63.05472 
Q 349.5852 63.05472 349.5852 67.9536 
L 349.5852 138.7152 
Q 349.5852 143.61408 357.588 143.61408 
z
" clip-path="url(#p20885adbd4)" style="fill: #fbf0e5; stroke: #c3d0d7; stroke-width: 1.1; stroke-linejoin: miter"/>
   </g>
   <g id="patch_4">
    <path d="M 633.24 143.61408 
L 873.324 143.61408 
Q 881.3268 143.61408 881.3268 138.7152 
L 881.3268 67.9536 
Q 881.3268 63.05472 873.324 63.05472 
L 633.24 63.05472 
Q 625.2372 63.05472 625.2372 67.9536 
L 625.2372 138.7152 
Q 625.2372 143.61408 633.24 143.61408 
z
" clip-path="url(#p20885adbd4)" style="fill: #eaf5f1; stroke: #c3d0d7; stroke-width: 1.1; stroke-linejoin: miter"/>
   </g>
   <g id="patch_5">
    <path d="M 288.454111 103.3344 
Q 317.576784 103.3344 345.022407 103.3344 
" clip-path="url(#p20885adbd4)" style="fill: none; stroke: #16857b; stroke-width: 1.5; stroke-linecap: round"/>
    <path d="M 339.822407 100.7344 
L 345.022407 103.3344 
L 339.822407 105.9344 
z
" clip-path="url(#p20885adbd4)" style="fill: #16857b; stroke: #16857b; stroke-width: 1.5; stroke-linecap: round"/>
   </g>
   <g id="patch_6">
    <path d="M 622.345889 103.3344 
Q 593.223216 103.3344 565.777593 103.3344 
" clip-path="url(#p20885adbd4)" style="fill: none; stroke: #16857b; stroke-width: 1.5; stroke-linecap: round"/>
    <path d="M 570.977593 105.9344 
L 565.777593 103.3344 
L 570.977593 100.7344 
z
" clip-path="url(#p20885adbd4)" style="fill: #16857b; stroke: #16857b; stroke-width: 1.5; stroke-linecap: round"/>
   </g>
   <g id="patch_7">
    <path d="M 37.476 317.79648 
L 277.56 317.79648 
Q 285.5628 317.79648 285.5628 312.8976 
L 285.5628 242.136 
Q 285.5628 237.23712 277.56 237.23712 
L 37.476 237.23712 
Q 29.4732 237.23712 29.4732 242.136 
L 29.4732 312.8976 
Q 29.4732 317.79648 37.476 317.79648 
z
" clip-path="url(#p20885adbd4)" style="fill: #eaf5f1; stroke: #c3d0d7; stroke-width: 1.1; stroke-linejoin: miter"/>
   </g>
   <g id="patch_8">
    <path d="M 357.588 317.79648 
L 553.212 317.79648 
Q 561.2148 317.79648 561.2148 312.8976 
L 561.2148 242.136 
Q 561.2148 237.23712 553.212 237.23712 
L 357.588 237.23712 
Q 349.5852 237.23712 349.5852 242.136 
L 349.5852 312.8976 
Q 349.5852 317.79648 357.588 317.79648 
z
" clip-path="url(#p20885adbd4)" style="fill: #fbf0e5; stroke: #c3d0d7; stroke-width: 1.1; stroke-linejoin: miter"/>
   </g>
   <g id="patch_9">
    <path d="M 633.24 317.79648 
L 873.324 317.79648 
Q 881.3268 317.79648 881.3268 312.8976 
L 881.3268 242.136 
Q 881.3268 237.23712 873.324 237.23712 
L 633.24 237.23712 
Q 625.2372 237.23712 625.2372 242.136 
L 625.2372 312.8976 
Q 625.2372 317.79648 633.24 317.79648 
z
" clip-path="url(#p20885adbd4)" style="fill: #eaf5f1; stroke: #c3d0d7; stroke-width: 1.1; stroke-linejoin: miter"/>
   </g>
   <g id="patch_10">
    <path d="M 288.454111 277.5168 
Q 317.576784 277.5168 345.022407 277.5168 
" clip-path="url(#p20885adbd4)" style="fill: none; stroke: #16857b; stroke-width: 1.5; stroke-linecap: round"/>
    <path d="M 339.822407 274.9168 
L 345.022407 277.5168 
L 339.822407 280.1168 
z
" clip-path="url(#p20885adbd4)" style="fill: #16857b; stroke: #16857b; stroke-width: 1.5; stroke-linecap: round"/>
   </g>
   <g id="patch_11">
    <path d="M 622.345889 277.5168 
Q 593.223216 277.5168 565.777593 277.5168 
" clip-path="url(#p20885adbd4)" style="fill: none; stroke: #16857b; stroke-width: 1.5; stroke-linecap: round"/>
    <path d="M 570.977593 280.1168 
L 565.777593 277.5168 
L 570.977593 274.9168 
z
" clip-path="url(#p20885adbd4)" style="fill: #16857b; stroke: #16857b; stroke-width: 1.5; stroke-linecap: round"/>
   </g>
   <g id="patch_12">
    <path d="M 37.476 491.97888 
L 277.56 491.97888 
Q 285.5628 491.97888 285.5628 487.08 
L 285.5628 416.3184 
Q 285.5628 411.41952 277.56 411.41952 
L 37.476 411.41952 
Q 29.4732 411.41952 29.4732 416.3184 
L 29.4732 487.08 
Q 29.4732 491.97888 37.476 491.97888 
z
" clip-path="url(#p20885adbd4)" style="fill: #eaf5f1; stroke: #c3d0d7; stroke-width: 1.1; stroke-linejoin: miter"/>
   </g>
   <g id="patch_13">
    <path d="M 357.588 491.97888 
L 553.212 491.97888 
Q 561.2148 491.97888 561.2148 487.08 
L 561.2148 416.3184 
Q 561.2148 411.41952 553.212 411.41952 
L 357.588 411.41952 
Q 349.5852 411.41952 349.5852 416.3184 
L 349.5852 487.08 
Q 349.5852 491.97888 357.588 491.97888 
z
" clip-path="url(#p20885adbd4)" style="fill: #fbf0e5; stroke: #c3d0d7; stroke-width: 1.1; stroke-linejoin: miter"/>
   </g>
   <g id="patch_14">
    <path d="M 633.24 491.97888 
L 873.324 491.97888 
Q 881.3268 491.97888 881.3268 487.08 
L 881.3268 416.3184 
Q 881.3268 411.41952 873.324 411.41952 
L 633.24 411.41952 
Q 625.2372 411.41952 625.2372 416.3184 
L 625.2372 487.08 
Q 625.2372 491.97888 633.24 491.97888 
z
" clip-path="url(#p20885adbd4)" style="fill: #eaf5f1; stroke: #c3d0d7; stroke-width: 1.1; stroke-linejoin: miter"/>
   </g>
   <g id="patch_15">
    <path d="M 288.454111 451.6992 
Q 317.576784 451.6992 345.022407 451.6992 
" clip-path="url(#p20885adbd4)" style="fill: none; stroke: #16857b; stroke-width: 1.5; stroke-linecap: round"/>
    <path d="M 339.822407 449.0992 
L 345.022407 451.6992 
L 339.822407 454.2992 
z
" clip-path="url(#p20885adbd4)" style="fill: #16857b; stroke: #16857b; stroke-width: 1.5; stroke-linecap: round"/>
   </g>
   <g id="patch_16">
    <path d="M 622.345889 451.6992 
Q 593.223216 451.6992 565.777593 451.6992 
" clip-path="url(#p20885adbd4)" style="fill: none; stroke: #16857b; stroke-width: 1.5; stroke-linecap: round"/>
    <path d="M 570.977593 454.2992 
L 565.777593 451.6992 
L 570.977593 449.0992 
z
" clip-path="url(#p20885adbd4)" style="fill: #16857b; stroke: #16857b; stroke-width: 1.5; stroke-linecap: round"/>
   </g>
   <g id="text_1">
    <text style="font-weight: 700; font-size: 14px; font-family: 'Arial Unicode MS'; text-anchor: start; fill: #203c48" x="33.03" y="44.194988" transform="rotate(-0 33.03 44.194988)">NVIDIA：机柜级 NVLink</text>
   </g>
   <g id="text_2">
    <text style="font-weight: 700; font-size: 12px; font-family: 'Arial Unicode MS'; text-anchor: middle; fill: #203c48" x="157.518" y="107.061197" transform="rotate(-0 157.518 107.061197)">GPU / CPU 托盘</text>
   </g>
   <g id="text_3">
    <text style="font-weight: 700; font-size: 12px; font-family: 'Arial Unicode MS'; text-anchor: middle; fill: #203c48" x="455.4" y="107.025572" transform="rotate(-0 455.4 107.025572)">NVLink 交换</text>
   </g>
   <g id="text_4">
    <text style="font-weight: 700; font-size: 12px; font-family: 'Arial Unicode MS'; text-anchor: middle; fill: #203c48" x="753.282" y="107.061197" transform="rotate(-0 753.282 107.061197)">GPU / CPU 托盘</text>
   </g>
   <g id="text_5">
    <text style="font-size: 11px; font-family: 'Arial Unicode MS'; text-anchor: middle; fill: #203c48" x="455.4" y="170.83008" transform="rotate(-0 455.4 170.83008)">GB200 NVL72：72 GPU、36 CPU</text>
   </g>
   <g id="text_6">
    <text style="font-weight: 700; font-size: 14px; font-family: 'Arial Unicode MS'; text-anchor: start; fill: #203c48" x="33.03" y="218.526138" transform="rotate(-0 33.03 218.526138)">TPU：连接电互联单元</text>
   </g>
   <g id="text_7">
    <text style="font-weight: 700; font-size: 12px; font-family: 'Arial Unicode MS'; text-anchor: middle; fill: #203c48" x="157.518" y="281.301722" transform="rotate(-0 157.518 281.301722)">64 芯片电互联单元</text>
   </g>
   <g id="text_8">
    <text style="font-weight: 700; font-size: 12px; font-family: 'Arial Unicode MS'; text-anchor: middle; fill: #203c48" x="455.4" y="281.284847" transform="rotate(-0 455.4 281.284847)">OCS 光路交换</text>
   </g>
   <g id="text_9">
    <text style="font-weight: 700; font-size: 12px; font-family: 'Arial Unicode MS'; text-anchor: middle; fill: #203c48" x="753.282" y="281.301722" transform="rotate(-0 753.282 281.301722)">64 芯片电互联单元</text>
   </g>
   <g id="text_10">
    <text style="font-size: 11px; font-family: 'Arial Unicode MS'; text-anchor: middle; fill: #203c48" x="455.4" y="345.01248" transform="rotate(-0 455.4 345.01248)">TPU v4：每单元 4 × 4 × 4 芯片</text>
   </g>
   <g id="text_11">
    <text style="font-weight: 700; font-size: 14px; font-family: 'Arial Unicode MS'; text-anchor: start; fill: #203c48" x="33.03" y="392.708538" transform="rotate(-0 33.03 392.708538)">UB：连接跨主机资源</text>
   </g>
   <g id="text_12">
    <text style="font-weight: 700; font-size: 12px; font-family: 'Arial Unicode MS'; text-anchor: middle; fill: #203c48" x="157.518" y="455.413809" transform="rotate(-0 157.518 455.413809)">NPU / CPU 资源</text>
   </g>
   <g id="text_13">
    <text style="font-weight: 700; font-size: 12px; font-family: 'Arial Unicode MS'; text-anchor: middle; fill: #203c48" x="455.4" y="455.390372" transform="rotate(-0 455.4 455.390372)">UB 交换</text>
   </g>
   <g id="text_14">
    <text style="font-weight: 700; font-size: 12px; font-family: 'Arial Unicode MS'; text-anchor: middle; fill: #203c48" x="753.282" y="455.413809" transform="rotate(-0 753.282 455.413809)">NPU / CPU 资源</text>
   </g>
   <g id="text_15">
    <text style="font-size: 11px; font-family: 'Arial Unicode MS'; text-anchor: middle; fill: #203c48" x="455.4" y="519.19488" transform="rotate(-0 455.4 519.19488)">CloudMatrix384：384 NPU、192 CPU</text>
   </g>
  </g>
 </g>
 <defs>
  <clipPath id="p20885adbd4">
   <rect x="10.8" y="10.8" width="889.2" height="544.32"/>
  </clipPath>
 </defs>
</svg>
