<?xml version="1.0" encoding="utf-8" standalone="no"?>
<!DOCTYPE svg PUBLIC "-//W3C//DTD SVG 1.1//EN"
  "http://www.w3.org/Graphics/SVG/1.1/DTD/svg11.dtd">
<svg xmlns:xlink="http://www.w3.org/1999/xlink" width="744.709687pt" height="293.713687pt" viewBox="0 0 744.709687 293.713687" xmlns="http://www.w3.org/2000/svg" version="1.1">
 <metadata>
  <rdf:RDF xmlns:dc="http://purl.org/dc/elements/1.1/" xmlns:cc="http://creativecommons.org/ns#" xmlns:rdf="http://www.w3.org/1999/02/22-rdf-syntax-ns#">
   <cc:Work>
    <dc:type rdf:resource="http://purl.org/dc/dcmitype/StillImage"/>
    <dc:date>2026-09-12T00:21:53.695673</dc:date>
    <dc:format>image/svg+xml</dc:format>
    <dc:creator>
     <cc:Agent>
      <dc:title>Matplotlib v3.11.1, https://matplotlib.org/</dc:title>
     </cc:Agent>
    </dc:creator>
   </cc:Work>
  </rdf:RDF>
 </metadata>
 <defs>
  <style type="text/css">*{stroke-linejoin: round; stroke-linecap: butt}</style>
 </defs>
 <g id="figure_1">
  <g id="patch_1">
   <path d="M 0 293.713687 
L 744.709687 293.713687 
L 744.709687 0 
L 0 0 
z
" style="fill: #ffffff"/>
  </g>
  <g id="axes_1">
   <g id="patch_2">
    <path d="M 44.869688 249.264 
L 733.909688 249.264 
L 733.909688 10.8 
L 44.869688 10.8 
z
" style="fill: #ffffff"/>
   </g>
   <g id="patch_3">
    <path d="M 44.869688 63.034971 
L 136.094702 63.034971 
L 136.094702 26.6976 
L 44.869688 26.6976 
z
" clip-path="url(#pea0a76eee5)" style="fill: #286b98"/>
   </g>
   <g id="patch_4">
    <path d="M 141.917575 63.034971 
L 233.142589 63.034971 
L 233.142589 26.6976 
L 141.917575 26.6976 
z
" clip-path="url(#pea0a76eee5)" style="fill: #16857b"/>
   </g>
   <g id="patch_5">
    <path d="M 238.965462 63.034971 
L 330.190476 63.034971 
L 330.190476 26.6976 
L 238.965462 26.6976 
z
" clip-path="url(#pea0a76eee5)" style="fill: #bc722b"/>
   </g>
   <g id="patch_6">
    <path d="M 336.013349 63.034971 
L 427.238364 63.034971 
L 427.238364 26.6976 
L 336.013349 26.6976 
z
" clip-path="url(#pea0a76eee5)" style="fill: #a94c52"/>
   </g>
   <g id="patch_7">
    <path d="M 141.917575 119.812114 
L 233.142589 119.812114 
L 233.142589 83.474743 
L 141.917575 83.474743 
z
" clip-path="url(#pea0a76eee5)" style="fill: #286b98"/>
   </g>
   <g id="patch_8">
    <path d="M 238.965462 119.812114 
L 330.190476 119.812114 
L 330.190476 83.474743 
L 238.965462 83.474743 
z
" clip-path="url(#pea0a76eee5)" style="fill: #16857b"/>
   </g>
   <g id="patch_9">
    <path d="M 336.013349 119.812114 
L 427.238364 119.812114 
L 427.238364 83.474743 
L 336.013349 83.474743 
z
" clip-path="url(#pea0a76eee5)" style="fill: #bc722b"/>
   </g>
   <g id="patch_10">
    <path d="M 433.061237 119.812114 
L 524.286251 119.812114 
L 524.286251 83.474743 
L 433.061237 83.474743 
z
" clip-path="url(#pea0a76eee5)" style="fill: #a94c52"/>
   </g>
   <g id="patch_11">
    <path d="M 238.965462 176.589257 
L 330.190476 176.589257 
L 330.190476 140.251886 
L 238.965462 140.251886 
z
" clip-path="url(#pea0a76eee5)" style="fill: #286b98"/>
   </g>
   <g id="patch_12">
    <path d="M 336.013349 176.589257 
L 427.238364 176.589257 
L 427.238364 140.251886 
L 336.013349 140.251886 
z
" clip-path="url(#pea0a76eee5)" style="fill: #16857b"/>
   </g>
   <g id="patch_13">
    <path d="M 433.061237 176.589257 
L 524.286251 176.589257 
L 524.286251 140.251886 
L 433.061237 140.251886 
z
" clip-path="url(#pea0a76eee5)" style="fill: #bc722b"/>
   </g>
   <g id="patch_14">
    <path d="M 530.109124 176.589257 
L 621.334138 176.589257 
L 621.334138 140.251886 
L 530.109124 140.251886 
z
" clip-path="url(#pea0a76eee5)" style="fill: #a94c52"/>
   </g>
   <g id="patch_15">
    <path d="M 336.013349 233.3664 
L 427.238364 233.3664 
L 427.238364 197.029029 
L 336.013349 197.029029 
z
" clip-path="url(#pea0a76eee5)" style="fill: #286b98"/>
   </g>
   <g id="patch_16">
    <path d="M 433.061237 233.3664 
L 524.286251 233.3664 
L 524.286251 197.029029 
L 433.061237 197.029029 
z
" clip-path="url(#pea0a76eee5)" style="fill: #16857b"/>
   </g>
   <g id="patch_17">
    <path d="M 530.109124 233.3664 
L 621.334138 233.3664 
L 621.334138 197.029029 
L 530.109124 197.029029 
z
" clip-path="url(#pea0a76eee5)" style="fill: #bc722b"/>
   </g>
   <g id="patch_18">
    <path d="M 627.157011 233.3664 
L 718.382026 233.3664 
L 718.382026 197.029029 
L 627.157011 197.029029 
z
" clip-path="url(#pea0a76eee5)" style="fill: #a94c52"/>
   </g>
   <g id="matplotlib.axis_1">
    <g id="xtick_1">
     <g id="line2d_1">
      <defs>
       <path id="m5a21f17471" d="M 0 0 
L 0 3.5 
" style="stroke: #000000; stroke-width: 0.8"/>
      </defs>
      <g>
       <use xlink:href="#m5a21f17471" x="44.869688" y="249.264" style="stroke: #000000; stroke-width: 0.8"/>
      </g>
     </g>
     <g id="text_1">
      <!-- 0 -->
      <g transform="translate(41.817188 265.944) scale(0.11 -0.11)">
       <defs>
        <path id="SourceHanSansCN-Regular-11" d="M 1779 -83 
Q 1338 -83 1008 185 
Q 678 454 499 998 
Q 320 1542 320 2362 
Q 320 3181 499 3715 
Q 678 4250 1008 4512 
Q 1338 4774 1779 4774 
Q 2227 4774 2553 4508 
Q 2880 4243 3059 3712 
Q 3238 3181 3238 2362 
Q 3238 1542 3059 998 
Q 2880 454 2553 185 
Q 2227 -83 1779 -83 
z
M 1779 390 
Q 2048 390 2249 595 
Q 2451 800 2563 1238 
Q 2675 1677 2675 2362 
Q 2675 3046 2563 3478 
Q 2451 3910 2249 4112 
Q 2048 4314 1779 4314 
Q 1517 4314 1312 4112 
Q 1107 3910 995 3478 
Q 883 3046 883 2362 
Q 883 1677 995 1238 
Q 1107 800 1312 595 
Q 1517 390 1779 390 
z
" transform="scale(0.015625)"/>
       </defs>
       <use xlink:href="#SourceHanSansCN-Regular-11"/>
      </g>
     </g>
    </g>
    <g id="xtick_2">
     <g id="line2d_2">
      <g>
       <use xlink:href="#m5a21f17471" x="141.917575" y="249.264" style="stroke: #000000; stroke-width: 0.8"/>
      </g>
     </g>
     <g id="text_2">
      <!-- 1 -->
      <g transform="translate(138.865075 265.944) scale(0.11 -0.11)">
       <defs>
        <path id="SourceHanSansCN-Regular-12" d="M 563 0 
L 563 486 
L 1613 486 
L 1613 3987 
L 774 3987 
L 774 4358 
Q 1088 4416 1321 4499 
Q 1555 4582 1747 4691 
L 2195 4691 
L 2195 486 
L 3136 486 
L 3136 0 
L 563 0 
z
" transform="scale(0.015625)"/>
       </defs>
       <use xlink:href="#SourceHanSansCN-Regular-12"/>
      </g>
     </g>
    </g>
    <g id="xtick_3">
     <g id="line2d_3">
      <g>
       <use xlink:href="#m5a21f17471" x="238.965462" y="249.264" style="stroke: #000000; stroke-width: 0.8"/>
      </g>
     </g>
     <g id="text_3">
      <!-- 2 -->
      <g transform="translate(235.912962 265.944) scale(0.11 -0.11)">
       <defs>
        <path id="SourceHanSansCN-Regular-13" d="M 282 0 
L 282 371 
Q 1030 998 1504 1529 
Q 1978 2061 2205 2518 
Q 2432 2976 2432 3373 
Q 2432 3642 2339 3853 
Q 2246 4064 2054 4182 
Q 1862 4301 1568 4301 
Q 1280 4301 1033 4147 
Q 787 3994 595 3757 
L 269 4077 
Q 550 4390 873 4582 
Q 1197 4774 1638 4774 
Q 2061 4774 2365 4604 
Q 2669 4435 2838 4124 
Q 3008 3814 3008 3398 
Q 3008 2925 2768 2445 
Q 2528 1965 2105 1472 
Q 1683 979 1126 461 
Q 1312 474 1517 490 
Q 1722 506 1894 506 
L 3232 506 
L 3232 0 
L 282 0 
z
" transform="scale(0.015625)"/>
       </defs>
       <use xlink:href="#SourceHanSansCN-Regular-13"/>
      </g>
     </g>
    </g>
    <g id="xtick_4">
     <g id="line2d_4">
      <g>
       <use xlink:href="#m5a21f17471" x="336.013349" y="249.264" style="stroke: #000000; stroke-width: 0.8"/>
      </g>
     </g>
     <g id="text_4">
      <!-- 3 -->
      <g transform="translate(332.960849 265.944) scale(0.11 -0.11)">
       <defs>
        <path id="SourceHanSansCN-Regular-14" d="M 1683 -83 
Q 1318 -83 1040 6 
Q 762 96 550 243 
Q 339 390 186 563 
L 486 941 
Q 691 730 969 566 
Q 1248 403 1645 403 
Q 1926 403 2140 508 
Q 2355 614 2476 809 
Q 2598 1005 2598 1274 
Q 2598 1555 2460 1766 
Q 2323 1978 2003 2096 
Q 1683 2214 1139 2214 
L 1139 2662 
Q 1626 2662 1907 2780 
Q 2189 2899 2313 3104 
Q 2438 3309 2438 3558 
Q 2438 3898 2227 4099 
Q 2016 4301 1645 4301 
Q 1363 4301 1116 4173 
Q 870 4045 672 3846 
L 358 4218 
Q 627 4461 944 4617 
Q 1261 4774 1664 4774 
Q 2061 4774 2371 4636 
Q 2682 4499 2858 4236 
Q 3034 3974 3034 3603 
Q 3034 3174 2803 2892 
Q 2573 2611 2202 2477 
L 2202 2445 
Q 2477 2381 2701 2221 
Q 2925 2061 3059 1817 
Q 3194 1574 3194 1254 
Q 3194 838 2989 537 
Q 2784 237 2445 77 
Q 2106 -83 1683 -83 
z
" transform="scale(0.015625)"/>
       </defs>
       <use xlink:href="#SourceHanSansCN-Regular-14"/>
      </g>
     </g>
    </g>
    <g id="xtick_5">
     <g id="line2d_5">
      <g>
       <use xlink:href="#m5a21f17471" x="433.061237" y="249.264" style="stroke: #000000; stroke-width: 0.8"/>
      </g>
     </g>
     <g id="text_5">
      <!-- 4 -->
      <g transform="translate(430.008737 265.944) scale(0.11 -0.11)">
       <defs>
        <path id="SourceHanSansCN-Regular-15" d="M 2176 0 
L 2176 3200 
Q 2176 3373 2189 3622 
Q 2202 3872 2208 4051 
L 2182 4051 
Q 2093 3885 2000 3709 
Q 1907 3533 1805 3360 
L 736 1760 
L 3354 1760 
L 3354 1293 
L 128 1293 
L 128 1677 
L 2080 4691 
L 2726 4691 
L 2726 0 
L 2176 0 
z
" transform="scale(0.015625)"/>
       </defs>
       <use xlink:href="#SourceHanSansCN-Regular-15"/>
      </g>
     </g>
    </g>
    <g id="xtick_6">
     <g id="line2d_6">
      <g>
       <use xlink:href="#m5a21f17471" x="530.109124" y="249.264" style="stroke: #000000; stroke-width: 0.8"/>
      </g>
     </g>
     <g id="text_6">
      <!-- 5 -->
      <g transform="translate(527.056624 265.944) scale(0.11 -0.11)">
       <defs>
        <path id="SourceHanSansCN-Regular-16" d="M 1677 -83 
Q 1312 -83 1033 6 
Q 755 96 547 237 
Q 339 378 173 538 
L 467 922 
Q 602 787 765 668 
Q 928 550 1139 476 
Q 1350 403 1619 403 
Q 1894 403 2121 537 
Q 2349 672 2483 921 
Q 2618 1171 2618 1510 
Q 2618 2010 2352 2294 
Q 2086 2579 1645 2579 
Q 1414 2579 1241 2508 
Q 1069 2438 864 2304 
L 550 2502 
L 704 4691 
L 2982 4691 
L 2982 4192 
L 1216 4192 
L 1094 2835 
Q 1248 2925 1417 2973 
Q 1587 3021 1798 3021 
Q 2189 3021 2509 2864 
Q 2829 2707 3021 2374 
Q 3213 2042 3213 1523 
Q 3213 1011 2992 652 
Q 2771 294 2419 105 
Q 2067 -83 1677 -83 
z
" transform="scale(0.015625)"/>
       </defs>
       <use xlink:href="#SourceHanSansCN-Regular-16"/>
      </g>
     </g>
    </g>
    <g id="xtick_7">
     <g id="line2d_7">
      <g>
       <use xlink:href="#m5a21f17471" x="627.157011" y="249.264" style="stroke: #000000; stroke-width: 0.8"/>
      </g>
     </g>
     <g id="text_7">
      <!-- 6 -->
      <g transform="translate(624.104511 265.944) scale(0.11 -0.11)">
       <defs>
        <path id="SourceHanSansCN-Regular-17" d="M 1926 -83 
Q 1594 -83 1306 61 
Q 1018 205 806 496 
Q 595 787 476 1222 
Q 358 1658 358 2240 
Q 358 2925 499 3411 
Q 640 3898 883 4198 
Q 1126 4499 1440 4636 
Q 1754 4774 2093 4774 
Q 2458 4774 2726 4640 
Q 2995 4506 3194 4294 
L 2861 3936 
Q 2726 4102 2528 4198 
Q 2330 4294 2118 4294 
Q 1786 4294 1510 4099 
Q 1235 3904 1072 3456 
Q 909 3008 909 2240 
Q 909 1638 1027 1222 
Q 1146 806 1373 592 
Q 1600 378 1926 378 
Q 2157 378 2333 512 
Q 2509 646 2614 886 
Q 2720 1126 2720 1440 
Q 2720 1760 2627 1993 
Q 2534 2227 2348 2352 
Q 2163 2477 1875 2477 
Q 1651 2477 1388 2333 
Q 1126 2189 890 1837 
L 870 2298 
Q 1018 2490 1197 2627 
Q 1376 2765 1577 2838 
Q 1779 2912 1971 2912 
Q 2368 2912 2659 2749 
Q 2950 2586 3113 2259 
Q 3277 1933 3277 1440 
Q 3277 986 3091 643 
Q 2906 301 2602 109 
Q 2298 -83 1926 -83 
z
" transform="scale(0.015625)"/>
       </defs>
       <use xlink:href="#SourceHanSansCN-Regular-17"/>
      </g>
     </g>
    </g>
    <g id="xtick_8">
     <g id="line2d_8">
      <g>
       <use xlink:href="#m5a21f17471" x="724.204899" y="249.264" style="stroke: #000000; stroke-width: 0.8"/>
      </g>
     </g>
     <g id="text_8">
      <!-- 7 -->
      <g transform="translate(721.152399 265.944) scale(0.11 -0.11)">
       <defs>
        <path id="SourceHanSansCN-Regular-18" d="M 1267 0 
Q 1299 666 1379 1226 
Q 1459 1786 1612 2282 
Q 1766 2778 2006 3245 
Q 2246 3712 2592 4192 
L 314 4192 
L 314 4691 
L 3251 4691 
L 3251 4339 
Q 2842 3808 2582 3321 
Q 2323 2835 2179 2329 
Q 2035 1824 1968 1257 
Q 1901 691 1875 0 
L 1267 0 
z
" transform="scale(0.015625)"/>
       </defs>
       <use xlink:href="#SourceHanSansCN-Regular-18"/>
      </g>
     </g>
    </g>
    <g id="text_9">
     <!-- 时间 / ms -->
     <g style="fill: #203c48" transform="translate(366.102344 280.944) scale(0.11 -0.11)">
      <defs>
       <path id="SourceHanSansCN-Regular-3a20" d="M 2522 4838 
L 2522 678 
L 755 678 
L 755 1114 
L 2074 1114 
L 2074 4403 
L 755 4403 
L 755 4838 
L 2522 4838 
z
M 2240 3002 
L 2240 2573 
L 774 2573 
L 774 3002 
L 2240 3002 
z
M 979 4838 
L 979 160 
L 518 160 
L 518 4838 
L 979 4838 
z
M 6157 4096 
L 6157 3616 
L 2816 3616 
L 2816 4096 
L 6157 4096 
z
M 5376 211 
Q 5376 -51 5302 -176 
Q 5229 -301 5056 -358 
Q 4883 -422 4569 -435 
Q 4256 -448 3776 -448 
Q 3757 -346 3705 -202 
Q 3654 -58 3597 45 
Q 3853 38 4080 32 
Q 4307 26 4473 29 
Q 4640 32 4710 38 
Q 4806 38 4848 76 
Q 4890 115 4890 211 
L 4890 5344 
L 5376 5344 
L 5376 211 
z
M 3430 3104 
Q 3603 2861 3795 2579 
Q 3987 2298 4156 2035 
Q 4326 1773 4435 1574 
L 4013 1331 
Q 3910 1530 3747 1802 
Q 3584 2074 3395 2362 
Q 3206 2650 3034 2893 
L 3430 3104 
z
" transform="scale(0.015625)"/>
       <path id="SourceHanSansCN-Regular-69f3" d="M 1075 3936 
L 1075 -512 
L 582 -512 
L 582 3936 
L 1075 3936 
z
M 1050 5293 
Q 1197 5158 1350 4995 
Q 1504 4832 1638 4672 
Q 1773 4512 1850 4378 
L 1453 4122 
Q 1376 4256 1251 4419 
Q 1126 4582 976 4752 
Q 826 4922 678 5062 
L 1050 5293 
z
M 5619 5018 
L 5619 4563 
L 2253 4563 
L 2253 5018 
L 5619 5018 
z
M 5843 70 
Q 5843 -128 5795 -233 
Q 5747 -339 5619 -403 
Q 5491 -461 5283 -473 
Q 5075 -486 4781 -480 
Q 4762 -397 4720 -262 
Q 4678 -128 4627 -38 
Q 4832 -45 5005 -45 
Q 5178 -45 5242 -45 
Q 5306 -38 5328 -12 
Q 5350 13 5350 70 
L 5350 5018 
L 5843 5018 
L 5843 70 
z
M 2426 1024 
L 3962 1024 
L 3962 1888 
L 2426 1888 
L 2426 1024 
z
M 2426 2291 
L 3962 2291 
L 3962 3142 
L 2426 3142 
L 2426 2291 
z
M 4416 3546 
L 4416 627 
L 1990 627 
L 1990 3546 
L 4416 3546 
z
" transform="scale(0.015625)"/>
       <path id="SourceHanSansCN-Regular-1" transform="scale(0.015625)"/>
       <path id="SourceHanSansCN-Regular-10" d="M 70 -1146 
L 1990 5082 
L 2413 5082 
L 499 -1146 
L 70 -1146 
z
" transform="scale(0.015625)"/>
       <path id="SourceHanSansCN-Regular-4e" d="M 589 0 
L 589 3475 
L 1069 3475 
L 1126 2970 
L 1139 2970 
Q 1370 3219 1642 3392 
Q 1914 3565 2221 3565 
Q 2624 3565 2848 3385 
Q 3072 3206 3181 2899 
Q 3456 3194 3734 3379 
Q 4013 3565 4333 3565 
Q 4864 3565 5123 3216 
Q 5382 2867 5382 2202 
L 5382 0 
L 4800 0 
L 4800 2125 
Q 4800 2618 4643 2835 
Q 4486 3053 4154 3053 
Q 3955 3053 3740 2921 
Q 3526 2790 3277 2522 
L 3277 0 
L 2694 0 
L 2694 2125 
Q 2694 2618 2537 2835 
Q 2381 3053 2048 3053 
Q 1850 3053 1632 2921 
Q 1414 2790 1178 2522 
L 1178 0 
L 589 0 
z
" transform="scale(0.015625)"/>
       <path id="SourceHanSansCN-Regular-54" d="M 1498 -83 
Q 1114 -83 778 48 
Q 442 179 205 410 
L 474 755 
Q 698 570 944 470 
Q 1190 371 1517 371 
Q 1862 371 2032 528 
Q 2202 685 2202 915 
Q 2202 1094 2086 1212 
Q 1971 1331 1795 1414 
Q 1619 1498 1421 1568 
Q 1165 1664 928 1789 
Q 691 1914 544 2102 
Q 397 2291 397 2579 
Q 397 2861 537 3081 
Q 678 3302 947 3433 
Q 1216 3565 1594 3565 
Q 1914 3565 2192 3453 
Q 2470 3341 2669 3168 
L 2400 2829 
Q 2221 2963 2025 3036 
Q 1830 3110 1600 3110 
Q 1267 3110 1110 2956 
Q 954 2803 954 2605 
Q 954 2451 1050 2342 
Q 1146 2234 1315 2160 
Q 1485 2086 1690 2010 
Q 1901 1933 2089 1846 
Q 2278 1760 2432 1641 
Q 2586 1523 2672 1356 
Q 2758 1190 2758 947 
Q 2758 666 2614 429 
Q 2470 192 2192 54 
Q 1914 -83 1498 -83 
z
" transform="scale(0.015625)"/>
      </defs>
      <use xlink:href="#SourceHanSansCN-Regular-3a20"/>
      <use xlink:href="#SourceHanSansCN-Regular-69f3" transform="translate(100 0)"/>
      <use xlink:href="#SourceHanSansCN-Regular-1" transform="translate(200 0)"/>
      <use xlink:href="#SourceHanSansCN-Regular-10" transform="translate(222.40625 0)"/>
      <use xlink:href="#SourceHanSansCN-Regular-1" transform="translate(261.609375 0)"/>
      <use xlink:href="#SourceHanSansCN-Regular-4e" transform="translate(284.015625 0)"/>
      <use xlink:href="#SourceHanSansCN-Regular-54" transform="translate(376.609375 0)"/>
     </g>
    </g>
   </g>
   <g id="matplotlib.axis_2">
    <g id="ytick_1">
     <g id="line2d_9"/>
     <g id="text_10">
      <!-- 阶段 0 -->
      <g transform="translate(10.8 49.706286) scale(0.11 -0.11)">
       <defs>
        <path id="SourceHanSansCN-Regular-6a35" d="M 5203 2893 
L 5203 -493 
L 4736 -493 
L 4736 2893 
L 5203 2893 
z
M 3661 1933 
Q 3661 1510 3603 1075 
Q 3546 640 3354 230 
Q 3162 -179 2746 -538 
Q 2694 -486 2617 -435 
Q 2541 -384 2461 -333 
Q 2381 -282 2310 -256 
Q 2707 70 2896 435 
Q 3085 800 3139 1184 
Q 3194 1568 3194 1939 
L 3194 2886 
L 3661 2886 
L 3661 1933 
z
M 4333 5184 
Q 4525 4787 4819 4406 
Q 5114 4026 5472 3715 
Q 5830 3405 6202 3219 
Q 6144 3174 6083 3110 
Q 6022 3046 5964 2972 
Q 5907 2899 5869 2842 
Q 5491 3066 5126 3411 
Q 4762 3757 4451 4176 
Q 4141 4595 3923 5037 
L 4333 5184 
z
M 4506 5338 
Q 4352 4883 4099 4416 
Q 3846 3949 3475 3523 
Q 3104 3098 2598 2746 
Q 2566 2797 2512 2867 
Q 2458 2938 2397 3002 
Q 2336 3066 2285 3104 
Q 2758 3418 3100 3808 
Q 3443 4198 3667 4611 
Q 3891 5024 4006 5408 
L 4506 5338 
z
M 2138 5114 
L 2138 4659 
L 986 4659 
L 986 -518 
L 512 -518 
L 512 5114 
L 2138 5114 
z
M 2093 5114 
L 2163 5133 
L 2496 4922 
Q 2330 4531 2125 4096 
Q 1920 3661 1728 3290 
Q 2157 2886 2294 2540 
Q 2432 2195 2432 1894 
Q 2432 1626 2361 1430 
Q 2291 1235 2138 1133 
Q 2061 1082 1968 1053 
Q 1875 1024 1766 1011 
Q 1651 998 1516 998 
Q 1382 998 1261 1005 
Q 1254 1094 1222 1219 
Q 1190 1344 1126 1440 
Q 1254 1434 1369 1430 
Q 1485 1427 1574 1427 
Q 1638 1440 1702 1453 
Q 1766 1466 1818 1498 
Q 1907 1549 1942 1667 
Q 1978 1786 1978 1933 
Q 1971 2202 1820 2525 
Q 1670 2848 1242 3226 
Q 1350 3443 1456 3680 
Q 1562 3917 1661 4150 
Q 1760 4384 1846 4598 
Q 1933 4813 1997 4979 
L 1997 5114 
L 2093 5114 
z
" transform="scale(0.015625)"/>
        <path id="SourceHanSansCN-Regular-3fda" d="M 4928 5139 
L 4928 4723 
L 3725 4723 
L 3725 5139 
L 4928 5139 
z
M 5299 2470 
L 5299 2054 
L 2989 2054 
L 2989 2470 
L 5299 2470 
z
M 2662 3814 
L 2662 3386 
L 941 3386 
L 941 3814 
L 2662 3814 
z
M 2656 2509 
L 2656 2074 
L 941 2074 
L 941 2509 
L 2656 2509 
z
M 3590 2093 
Q 3802 1555 4163 1120 
Q 4525 685 5024 374 
Q 5523 64 6144 -83 
Q 6099 -134 6038 -208 
Q 5978 -282 5930 -358 
Q 5882 -435 5843 -493 
Q 4883 -218 4217 422 
Q 3552 1062 3206 1984 
L 3590 2093 
z
M 211 1005 
Q 531 1043 944 1104 
Q 1357 1165 1824 1235 
Q 2291 1306 2758 1376 
L 2784 960 
Q 2118 845 1459 739 
Q 800 634 294 544 
L 211 1005 
z
M 2835 5056 
Q 2560 4934 2237 4822 
Q 1914 4710 1571 4617 
Q 1229 4525 909 4442 
Q 890 4518 842 4627 
Q 794 4736 755 4806 
Q 1062 4890 1372 4989 
Q 1683 5088 1961 5200 
Q 2240 5312 2438 5414 
L 2835 5056 
z
M 3891 4352 
Q 3891 4070 3824 3750 
Q 3757 3430 3577 3132 
Q 3398 2835 3046 2598 
Q 3014 2643 2953 2704 
Q 2893 2765 2825 2819 
Q 2758 2874 2707 2906 
Q 3027 3123 3184 3369 
Q 3341 3616 3392 3875 
Q 3443 4134 3443 4365 
L 3443 5139 
L 3891 5139 
L 3891 4352 
z
M 5293 2470 
L 5376 2490 
L 5670 2381 
Q 5472 1536 5053 960 
Q 4634 384 4054 25 
Q 3475 -333 2771 -531 
Q 2746 -467 2704 -393 
Q 2662 -320 2617 -246 
Q 2573 -173 2522 -122 
Q 3168 32 3712 349 
Q 4256 666 4643 1171 
Q 5030 1677 5197 2394 
L 5197 2470 
L 5293 2470 
z
M 1222 4646 
L 1222 -422 
L 755 -422 
L 755 4806 
L 1222 4646 
z
M 5229 3514 
Q 5229 3386 5251 3341 
Q 5274 3296 5338 3296 
Q 5382 3296 5468 3296 
Q 5555 3296 5648 3296 
Q 5741 3296 5773 3296 
Q 5837 3296 5926 3299 
Q 6016 3302 6074 3322 
Q 6080 3238 6086 3129 
Q 6093 3021 6106 2950 
Q 6054 2931 5964 2924 
Q 5875 2918 5779 2918 
Q 5741 2918 5638 2918 
Q 5536 2918 5437 2918 
Q 5338 2918 5299 2918 
Q 5088 2918 4976 2979 
Q 4864 3040 4825 3171 
Q 4787 3302 4787 3520 
L 4787 5139 
L 5229 5139 
L 5229 3514 
z
" transform="scale(0.015625)"/>
       </defs>
       <use xlink:href="#SourceHanSansCN-Regular-6a35"/>
       <use xlink:href="#SourceHanSansCN-Regular-3fda" transform="translate(100 0)"/>
       <use xlink:href="#SourceHanSansCN-Regular-1" transform="translate(200 0)"/>
       <use xlink:href="#SourceHanSansCN-Regular-11" transform="translate(222.40625 0)"/>
      </g>
     </g>
    </g>
    <g id="ytick_2">
     <g id="line2d_10"/>
     <g id="text_11">
      <!-- 阶段 1 -->
      <g transform="translate(10.8 106.483429) scale(0.11 -0.11)">
       <use xlink:href="#SourceHanSansCN-Regular-6a35"/>
       <use xlink:href="#SourceHanSansCN-Regular-3fda" transform="translate(100 0)"/>
       <use xlink:href="#SourceHanSansCN-Regular-1" transform="translate(200 0)"/>
       <use xlink:href="#SourceHanSansCN-Regular-12" transform="translate(222.40625 0)"/>
      </g>
     </g>
    </g>
    <g id="ytick_3">
     <g id="line2d_11"/>
     <g id="text_12">
      <!-- 阶段 2 -->
      <g transform="translate(10.8 163.260571) scale(0.11 -0.11)">
       <use xlink:href="#SourceHanSansCN-Regular-6a35"/>
       <use xlink:href="#SourceHanSansCN-Regular-3fda" transform="translate(100 0)"/>
       <use xlink:href="#SourceHanSansCN-Regular-1" transform="translate(200 0)"/>
       <use xlink:href="#SourceHanSansCN-Regular-13" transform="translate(222.40625 0)"/>
      </g>
     </g>
    </g>
    <g id="ytick_4">
     <g id="line2d_12"/>
     <g id="text_13">
      <!-- 阶段 3 -->
      <g transform="translate(10.8 220.037714) scale(0.11 -0.11)">
       <use xlink:href="#SourceHanSansCN-Regular-6a35"/>
       <use xlink:href="#SourceHanSansCN-Regular-3fda" transform="translate(100 0)"/>
       <use xlink:href="#SourceHanSansCN-Regular-1" transform="translate(200 0)"/>
       <use xlink:href="#SourceHanSansCN-Regular-14" transform="translate(222.40625 0)"/>
      </g>
     </g>
    </g>
   </g>
   <g id="line2d_13">
    <path d="M 433.061237 249.264 
L 433.061237 10.8 
" clip-path="url(#pea0a76eee5)" style="fill: none; stroke-dasharray: 1,1.65; stroke-dashoffset: 0; stroke: #546e7a"/>
   </g>
   <g id="patch_19">
    <path d="M 44.869688 249.264 
L 733.909688 249.264 
" style="fill: none; stroke: #000000; stroke-width: 0.8; stroke-linejoin: miter; stroke-linecap: square"/>
   </g>
   <g id="text_14">
    <!-- micro-batch 0 -->
    <g style="fill: #ffffff" transform="translate(51.745632 49.426286) scale(0.12 -0.12)">
     <defs>
      <path id="SourceHanSansCN-Regular-4a" d="M 589 0 
L 589 3475 
L 1178 3475 
L 1178 0 
L 589 0 
z
M 877 4192 
Q 704 4192 595 4297 
Q 486 4403 486 4582 
Q 486 4755 595 4857 
Q 704 4960 877 4960 
Q 1050 4960 1158 4857 
Q 1267 4755 1267 4582 
Q 1267 4403 1158 4297 
Q 1050 4192 877 4192 
z
" transform="scale(0.015625)"/>
      <path id="SourceHanSansCN-Regular-44" d="M 1971 -83 
Q 1504 -83 1133 131 
Q 762 346 547 752 
Q 333 1158 333 1734 
Q 333 2317 563 2723 
Q 794 3130 1178 3347 
Q 1562 3565 2003 3565 
Q 2342 3565 2592 3449 
Q 2842 3334 3014 3155 
L 2726 2797 
Q 2592 2925 2422 2998 
Q 2253 3072 2029 3072 
Q 1722 3072 1472 2905 
Q 1222 2739 1078 2438 
Q 934 2138 934 1734 
Q 934 1338 1072 1037 
Q 1210 736 1453 569 
Q 1696 403 2016 403 
Q 2253 403 2464 492 
Q 2675 582 2829 723 
L 3085 365 
Q 2867 160 2582 38 
Q 2298 -83 1971 -83 
z
" transform="scale(0.015625)"/>
      <path id="SourceHanSansCN-Regular-53" d="M 589 0 
L 589 3475 
L 1069 3475 
L 1126 2842 
L 1139 2842 
Q 1318 3174 1574 3369 
Q 1830 3565 2125 3565 
Q 2246 3565 2332 3549 
Q 2419 3533 2496 3488 
L 2368 2995 
Q 2291 3021 2224 3030 
Q 2157 3040 2048 3040 
Q 1837 3040 1593 2857 
Q 1350 2675 1178 2234 
L 1178 0 
L 589 0 
z
" transform="scale(0.015625)"/>
      <path id="SourceHanSansCN-Regular-50" d="M 1939 -83 
Q 1517 -83 1145 131 
Q 774 346 553 752 
Q 333 1158 333 1734 
Q 333 2317 553 2723 
Q 774 3130 1145 3347 
Q 1517 3565 1939 3565 
Q 2259 3565 2550 3443 
Q 2842 3322 3066 3085 
Q 3290 2848 3418 2509 
Q 3546 2170 3546 1734 
Q 3546 1158 3322 752 
Q 3098 346 2733 131 
Q 2368 -83 1939 -83 
z
M 1939 403 
Q 2240 403 2467 569 
Q 2694 736 2822 1037 
Q 2950 1338 2950 1734 
Q 2950 2138 2822 2438 
Q 2694 2739 2467 2905 
Q 2240 3072 1939 3072 
Q 1638 3072 1411 2905 
Q 1184 2739 1059 2438 
Q 934 2138 934 1734 
Q 934 1338 1059 1037 
Q 1184 736 1411 569 
Q 1638 403 1939 403 
z
" transform="scale(0.015625)"/>
      <path id="SourceHanSansCN-Regular-e" d="M 294 1568 
L 294 2016 
L 1939 2016 
L 1939 1568 
L 294 1568 
z
" transform="scale(0.015625)"/>
      <path id="SourceHanSansCN-Regular-43" d="M 2118 -83 
Q 1882 -83 1619 32 
Q 1357 147 1133 358 
L 1107 358 
L 1056 0 
L 589 0 
L 589 5094 
L 1178 5094 
L 1178 3699 
L 1152 3078 
Q 1389 3283 1670 3424 
Q 1952 3565 2246 3565 
Q 2694 3565 3001 3344 
Q 3309 3123 3469 2726 
Q 3629 2330 3629 1792 
Q 3629 1203 3414 780 
Q 3200 358 2857 137 
Q 2515 -83 2118 -83 
z
M 2022 410 
Q 2310 410 2537 573 
Q 2765 736 2893 1046 
Q 3021 1357 3021 1786 
Q 3021 2170 2928 2461 
Q 2835 2752 2636 2912 
Q 2438 3072 2099 3072 
Q 1882 3072 1651 2950 
Q 1421 2829 1178 2598 
L 1178 768 
Q 1402 570 1629 490 
Q 1856 410 2022 410 
z
" transform="scale(0.015625)"/>
      <path id="SourceHanSansCN-Regular-42" d="M 1389 -83 
Q 1101 -83 870 32 
Q 640 147 509 368 
Q 378 589 378 902 
Q 378 1472 886 1776 
Q 1395 2080 2509 2202 
Q 2509 2426 2448 2627 
Q 2387 2829 2233 2953 
Q 2080 3078 1792 3078 
Q 1491 3078 1225 2966 
Q 960 2854 749 2720 
L 525 3110 
Q 685 3219 896 3321 
Q 1107 3424 1356 3494 
Q 1606 3565 1888 3565 
Q 2310 3565 2576 3385 
Q 2842 3206 2966 2889 
Q 3091 2573 3091 2138 
L 3091 0 
L 2611 0 
L 2560 416 
L 2541 416 
Q 2298 211 2006 64 
Q 1715 -83 1389 -83 
z
M 1555 390 
Q 1805 390 2032 505 
Q 2259 621 2509 845 
L 2509 1811 
Q 1926 1747 1580 1628 
Q 1235 1510 1088 1340 
Q 941 1171 941 941 
Q 941 640 1120 515 
Q 1299 390 1555 390 
z
" transform="scale(0.015625)"/>
      <path id="SourceHanSansCN-Regular-55" d="M 1677 -70 
Q 1312 -70 1094 77 
Q 877 224 784 486 
Q 691 749 691 1094 
L 691 3002 
L 173 3002 
L 173 3443 
L 723 3475 
L 787 4595 
L 1274 4595 
L 1274 3475 
L 2221 3475 
L 2221 3002 
L 1274 3002 
L 1274 1082 
Q 1274 755 1392 582 
Q 1510 410 1811 410 
Q 1907 410 2006 429 
Q 2106 448 2208 499 
L 2330 83 
Q 2195 19 2022 -25 
Q 1850 -70 1677 -70 
z
" transform="scale(0.015625)"/>
      <path id="SourceHanSansCN-Regular-49" d="M 589 0 
L 589 5094 
L 1178 5094 
L 1178 3699 
L 1152 2982 
Q 1395 3226 1670 3395 
Q 1946 3565 2304 3565 
Q 2854 3565 3110 3216 
Q 3366 2867 3366 2202 
L 3366 0 
L 2784 0 
L 2784 2125 
Q 2784 2618 2627 2835 
Q 2470 3053 2125 3053 
Q 1856 3053 1645 2918 
Q 1434 2784 1178 2522 
L 1178 0 
L 589 0 
z
" transform="scale(0.015625)"/>
      <path id="SourceHanSansCN-Regular-7785" d="M 1779 -83 
Q 1325 -83 998 192 
Q 672 467 496 998 
Q 320 1530 320 2298 
Q 320 3059 496 3584 
Q 672 4109 998 4377 
Q 1325 4646 1779 4646 
Q 2234 4646 2560 4377 
Q 2886 4109 3062 3584 
Q 3238 3059 3238 2298 
Q 3238 1530 3062 998 
Q 2886 467 2560 192 
Q 2234 -83 1779 -83 
z
M 1779 390 
Q 2048 390 2249 588 
Q 2451 787 2563 1209 
Q 2675 1632 2675 2298 
Q 2675 2963 2563 3379 
Q 2451 3795 2249 3987 
Q 2048 4179 1779 4179 
Q 1517 4179 1312 3987 
Q 1107 3795 995 3379 
Q 883 2963 883 2298 
Q 883 1632 995 1209 
Q 1107 787 1312 588 
Q 1517 390 1779 390 
z
" transform="scale(0.015625)"/>
     </defs>
     <use xlink:href="#SourceHanSansCN-Regular-4e"/>
     <use xlink:href="#SourceHanSansCN-Regular-4a" transform="translate(92.59375 0)"/>
     <use xlink:href="#SourceHanSansCN-Regular-44" transform="translate(120.09375 0)"/>
     <use xlink:href="#SourceHanSansCN-Regular-53" transform="translate(171.09375 0)"/>
     <use xlink:href="#SourceHanSansCN-Regular-50" transform="translate(208.796875 0)"/>
     <use xlink:href="#SourceHanSansCN-Regular-e" transform="translate(270.09375 0)"/>
     <use xlink:href="#SourceHanSansCN-Regular-43" transform="translate(304.796875 0)"/>
     <use xlink:href="#SourceHanSansCN-Regular-42" transform="translate(365 0)"/>
     <use xlink:href="#SourceHanSansCN-Regular-55" transform="translate(419.796875 0)"/>
     <use xlink:href="#SourceHanSansCN-Regular-44" transform="translate(456 0)"/>
     <use xlink:href="#SourceHanSansCN-Regular-49" transform="translate(507 0)"/>
     <use xlink:href="#SourceHanSansCN-Regular-1" transform="translate(567.703125 0)"/>
     <use xlink:href="#SourceHanSansCN-Regular-7785" transform="translate(590.109375 0)"/>
    </g>
   </g>
   <g id="text_15">
    <!-- micro-batch 1 -->
    <g style="fill: #ffffff" transform="translate(148.793519 49.426286) scale(0.12 -0.12)">
     <defs>
      <path id="SourceHanSansCN-Regular-7786" d="M 563 0 
L 563 486 
L 1613 486 
L 1613 3853 
L 774 3853 
L 774 4224 
Q 1088 4282 1321 4365 
Q 1555 4448 1747 4563 
L 2195 4563 
L 2195 486 
L 3136 486 
L 3136 0 
L 563 0 
z
" transform="scale(0.015625)"/>
     </defs>
     <use xlink:href="#SourceHanSansCN-Regular-4e"/>
     <use xlink:href="#SourceHanSansCN-Regular-4a" transform="translate(92.59375 0)"/>
     <use xlink:href="#SourceHanSansCN-Regular-44" transform="translate(120.09375 0)"/>
     <use xlink:href="#SourceHanSansCN-Regular-53" transform="translate(171.09375 0)"/>
     <use xlink:href="#SourceHanSansCN-Regular-50" transform="translate(208.796875 0)"/>
     <use xlink:href="#SourceHanSansCN-Regular-e" transform="translate(270.09375 0)"/>
     <use xlink:href="#SourceHanSansCN-Regular-43" transform="translate(304.796875 0)"/>
     <use xlink:href="#SourceHanSansCN-Regular-42" transform="translate(365 0)"/>
     <use xlink:href="#SourceHanSansCN-Regular-55" transform="translate(419.796875 0)"/>
     <use xlink:href="#SourceHanSansCN-Regular-44" transform="translate(456 0)"/>
     <use xlink:href="#SourceHanSansCN-Regular-49" transform="translate(507 0)"/>
     <use xlink:href="#SourceHanSansCN-Regular-1" transform="translate(567.703125 0)"/>
     <use xlink:href="#SourceHanSansCN-Regular-7786" transform="translate(590.109375 0)"/>
    </g>
   </g>
   <g id="text_16">
    <!-- micro-batch 2 -->
    <g style="fill: #ffffff" transform="translate(245.841407 49.426286) scale(0.12 -0.12)">
     <defs>
      <path id="SourceHanSansCN-Regular-7787" d="M 282 0 
L 282 358 
Q 973 1030 1449 1548 
Q 1926 2067 2179 2489 
Q 2432 2912 2432 3283 
Q 2432 3546 2339 3747 
Q 2246 3949 2054 4061 
Q 1862 4173 1568 4173 
Q 1280 4173 1033 4013 
Q 787 3853 595 3629 
L 269 3942 
Q 550 4262 873 4454 
Q 1197 4646 1638 4646 
Q 2061 4646 2365 4480 
Q 2669 4314 2838 4013 
Q 3008 3712 3008 3315 
Q 3008 2874 2758 2432 
Q 2509 1990 2077 1510 
Q 1645 1030 1088 461 
Q 1274 474 1475 490 
Q 1677 506 1850 506 
L 3232 506 
L 3232 0 
L 282 0 
z
" transform="scale(0.015625)"/>
     </defs>
     <use xlink:href="#SourceHanSansCN-Regular-4e"/>
     <use xlink:href="#SourceHanSansCN-Regular-4a" transform="translate(92.59375 0)"/>
     <use xlink:href="#SourceHanSansCN-Regular-44" transform="translate(120.09375 0)"/>
     <use xlink:href="#SourceHanSansCN-Regular-53" transform="translate(171.09375 0)"/>
     <use xlink:href="#SourceHanSansCN-Regular-50" transform="translate(208.796875 0)"/>
     <use xlink:href="#SourceHanSansCN-Regular-e" transform="translate(270.09375 0)"/>
     <use xlink:href="#SourceHanSansCN-Regular-43" transform="translate(304.796875 0)"/>
     <use xlink:href="#SourceHanSansCN-Regular-42" transform="translate(365 0)"/>
     <use xlink:href="#SourceHanSansCN-Regular-55" transform="translate(419.796875 0)"/>
     <use xlink:href="#SourceHanSansCN-Regular-44" transform="translate(456 0)"/>
     <use xlink:href="#SourceHanSansCN-Regular-49" transform="translate(507 0)"/>
     <use xlink:href="#SourceHanSansCN-Regular-1" transform="translate(567.703125 0)"/>
     <use xlink:href="#SourceHanSansCN-Regular-7787" transform="translate(590.109375 0)"/>
    </g>
   </g>
   <g id="text_17">
    <!-- micro-batch 3 -->
    <g style="fill: #ffffff" transform="translate(342.889294 49.426286) scale(0.12 -0.12)">
     <defs>
      <path id="SourceHanSansCN-Regular-7788" d="M 1683 -83 
Q 1318 -83 1040 6 
Q 762 96 550 243 
Q 339 390 186 563 
L 486 941 
Q 691 730 969 566 
Q 1248 403 1645 403 
Q 1926 403 2140 505 
Q 2355 608 2476 797 
Q 2598 986 2598 1242 
Q 2598 1517 2460 1718 
Q 2323 1920 2003 2032 
Q 1683 2144 1139 2144 
L 1139 2598 
Q 1626 2598 1907 2710 
Q 2189 2822 2313 3017 
Q 2438 3213 2438 3450 
Q 2438 3782 2227 3977 
Q 2016 4173 1645 4173 
Q 1363 4173 1116 4041 
Q 870 3910 672 3706 
L 358 4077 
Q 627 4320 944 4483 
Q 1261 4646 1664 4646 
Q 2061 4646 2371 4512 
Q 2682 4378 2858 4118 
Q 3034 3859 3034 3494 
Q 3034 3078 2803 2809 
Q 2573 2541 2202 2406 
L 2202 2381 
Q 2477 2310 2701 2156 
Q 2925 2003 3059 1769 
Q 3194 1536 3194 1216 
Q 3194 806 2989 518 
Q 2784 230 2445 73 
Q 2106 -83 1683 -83 
z
" transform="scale(0.015625)"/>
     </defs>
     <use xlink:href="#SourceHanSansCN-Regular-4e"/>
     <use xlink:href="#SourceHanSansCN-Regular-4a" transform="translate(92.59375 0)"/>
     <use xlink:href="#SourceHanSansCN-Regular-44" transform="translate(120.09375 0)"/>
     <use xlink:href="#SourceHanSansCN-Regular-53" transform="translate(171.09375 0)"/>
     <use xlink:href="#SourceHanSansCN-Regular-50" transform="translate(208.796875 0)"/>
     <use xlink:href="#SourceHanSansCN-Regular-e" transform="translate(270.09375 0)"/>
     <use xlink:href="#SourceHanSansCN-Regular-43" transform="translate(304.796875 0)"/>
     <use xlink:href="#SourceHanSansCN-Regular-42" transform="translate(365 0)"/>
     <use xlink:href="#SourceHanSansCN-Regular-55" transform="translate(419.796875 0)"/>
     <use xlink:href="#SourceHanSansCN-Regular-44" transform="translate(456 0)"/>
     <use xlink:href="#SourceHanSansCN-Regular-49" transform="translate(507 0)"/>
     <use xlink:href="#SourceHanSansCN-Regular-1" transform="translate(567.703125 0)"/>
     <use xlink:href="#SourceHanSansCN-Regular-7788" transform="translate(590.109375 0)"/>
    </g>
   </g>
   <g id="text_18">
    <!-- micro-batch 0 -->
    <g style="fill: #ffffff" transform="translate(148.793519 106.203429) scale(0.12 -0.12)">
     <use xlink:href="#SourceHanSansCN-Regular-4e"/>
     <use xlink:href="#SourceHanSansCN-Regular-4a" transform="translate(92.59375 0)"/>
     <use xlink:href="#SourceHanSansCN-Regular-44" transform="translate(120.09375 0)"/>
     <use xlink:href="#SourceHanSansCN-Regular-53" transform="translate(171.09375 0)"/>
     <use xlink:href="#SourceHanSansCN-Regular-50" transform="translate(208.796875 0)"/>
     <use xlink:href="#SourceHanSansCN-Regular-e" transform="translate(270.09375 0)"/>
     <use xlink:href="#SourceHanSansCN-Regular-43" transform="translate(304.796875 0)"/>
     <use xlink:href="#SourceHanSansCN-Regular-42" transform="translate(365 0)"/>
     <use xlink:href="#SourceHanSansCN-Regular-55" transform="translate(419.796875 0)"/>
     <use xlink:href="#SourceHanSansCN-Regular-44" transform="translate(456 0)"/>
     <use xlink:href="#SourceHanSansCN-Regular-49" transform="translate(507 0)"/>
     <use xlink:href="#SourceHanSansCN-Regular-1" transform="translate(567.703125 0)"/>
     <use xlink:href="#SourceHanSansCN-Regular-7785" transform="translate(590.109375 0)"/>
    </g>
   </g>
   <g id="text_19">
    <!-- micro-batch 1 -->
    <g style="fill: #ffffff" transform="translate(245.841407 106.203429) scale(0.12 -0.12)">
     <use xlink:href="#SourceHanSansCN-Regular-4e"/>
     <use xlink:href="#SourceHanSansCN-Regular-4a" transform="translate(92.59375 0)"/>
     <use xlink:href="#SourceHanSansCN-Regular-44" transform="translate(120.09375 0)"/>
     <use xlink:href="#SourceHanSansCN-Regular-53" transform="translate(171.09375 0)"/>
     <use xlink:href="#SourceHanSansCN-Regular-50" transform="translate(208.796875 0)"/>
     <use xlink:href="#SourceHanSansCN-Regular-e" transform="translate(270.09375 0)"/>
     <use xlink:href="#SourceHanSansCN-Regular-43" transform="translate(304.796875 0)"/>
     <use xlink:href="#SourceHanSansCN-Regular-42" transform="translate(365 0)"/>
     <use xlink:href="#SourceHanSansCN-Regular-55" transform="translate(419.796875 0)"/>
     <use xlink:href="#SourceHanSansCN-Regular-44" transform="translate(456 0)"/>
     <use xlink:href="#SourceHanSansCN-Regular-49" transform="translate(507 0)"/>
     <use xlink:href="#SourceHanSansCN-Regular-1" transform="translate(567.703125 0)"/>
     <use xlink:href="#SourceHanSansCN-Regular-7786" transform="translate(590.109375 0)"/>
    </g>
   </g>
   <g id="text_20">
    <!-- micro-batch 2 -->
    <g style="fill: #ffffff" transform="translate(342.889294 106.203429) scale(0.12 -0.12)">
     <use xlink:href="#SourceHanSansCN-Regular-4e"/>
     <use xlink:href="#SourceHanSansCN-Regular-4a" transform="translate(92.59375 0)"/>
     <use xlink:href="#SourceHanSansCN-Regular-44" transform="translate(120.09375 0)"/>
     <use xlink:href="#SourceHanSansCN-Regular-53" transform="translate(171.09375 0)"/>
     <use xlink:href="#SourceHanSansCN-Regular-50" transform="translate(208.796875 0)"/>
     <use xlink:href="#SourceHanSansCN-Regular-e" transform="translate(270.09375 0)"/>
     <use xlink:href="#SourceHanSansCN-Regular-43" transform="translate(304.796875 0)"/>
     <use xlink:href="#SourceHanSansCN-Regular-42" transform="translate(365 0)"/>
     <use xlink:href="#SourceHanSansCN-Regular-55" transform="translate(419.796875 0)"/>
     <use xlink:href="#SourceHanSansCN-Regular-44" transform="translate(456 0)"/>
     <use xlink:href="#SourceHanSansCN-Regular-49" transform="translate(507 0)"/>
     <use xlink:href="#SourceHanSansCN-Regular-1" transform="translate(567.703125 0)"/>
     <use xlink:href="#SourceHanSansCN-Regular-7787" transform="translate(590.109375 0)"/>
    </g>
   </g>
   <g id="text_21">
    <!-- micro-batch 3 -->
    <g style="fill: #ffffff" transform="translate(439.937181 106.203429) scale(0.12 -0.12)">
     <use xlink:href="#SourceHanSansCN-Regular-4e"/>
     <use xlink:href="#SourceHanSansCN-Regular-4a" transform="translate(92.59375 0)"/>
     <use xlink:href="#SourceHanSansCN-Regular-44" transform="translate(120.09375 0)"/>
     <use xlink:href="#SourceHanSansCN-Regular-53" transform="translate(171.09375 0)"/>
     <use xlink:href="#SourceHanSansCN-Regular-50" transform="translate(208.796875 0)"/>
     <use xlink:href="#SourceHanSansCN-Regular-e" transform="translate(270.09375 0)"/>
     <use xlink:href="#SourceHanSansCN-Regular-43" transform="translate(304.796875 0)"/>
     <use xlink:href="#SourceHanSansCN-Regular-42" transform="translate(365 0)"/>
     <use xlink:href="#SourceHanSansCN-Regular-55" transform="translate(419.796875 0)"/>
     <use xlink:href="#SourceHanSansCN-Regular-44" transform="translate(456 0)"/>
     <use xlink:href="#SourceHanSansCN-Regular-49" transform="translate(507 0)"/>
     <use xlink:href="#SourceHanSansCN-Regular-1" transform="translate(567.703125 0)"/>
     <use xlink:href="#SourceHanSansCN-Regular-7788" transform="translate(590.109375 0)"/>
    </g>
   </g>
   <g id="text_22">
    <!-- micro-batch 0 -->
    <g style="fill: #ffffff" transform="translate(245.841407 162.980571) scale(0.12 -0.12)">
     <use xlink:href="#SourceHanSansCN-Regular-4e"/>
     <use xlink:href="#SourceHanSansCN-Regular-4a" transform="translate(92.59375 0)"/>
     <use xlink:href="#SourceHanSansCN-Regular-44" transform="translate(120.09375 0)"/>
     <use xlink:href="#SourceHanSansCN-Regular-53" transform="translate(171.09375 0)"/>
     <use xlink:href="#SourceHanSansCN-Regular-50" transform="translate(208.796875 0)"/>
     <use xlink:href="#SourceHanSansCN-Regular-e" transform="translate(270.09375 0)"/>
     <use xlink:href="#SourceHanSansCN-Regular-43" transform="translate(304.796875 0)"/>
     <use xlink:href="#SourceHanSansCN-Regular-42" transform="translate(365 0)"/>
     <use xlink:href="#SourceHanSansCN-Regular-55" transform="translate(419.796875 0)"/>
     <use xlink:href="#SourceHanSansCN-Regular-44" transform="translate(456 0)"/>
     <use xlink:href="#SourceHanSansCN-Regular-49" transform="translate(507 0)"/>
     <use xlink:href="#SourceHanSansCN-Regular-1" transform="translate(567.703125 0)"/>
     <use xlink:href="#SourceHanSansCN-Regular-7785" transform="translate(590.109375 0)"/>
    </g>
   </g>
   <g id="text_23">
    <!-- micro-batch 1 -->
    <g style="fill: #ffffff" transform="translate(342.889294 162.980571) scale(0.12 -0.12)">
     <use xlink:href="#SourceHanSansCN-Regular-4e"/>
     <use xlink:href="#SourceHanSansCN-Regular-4a" transform="translate(92.59375 0)"/>
     <use xlink:href="#SourceHanSansCN-Regular-44" transform="translate(120.09375 0)"/>
     <use xlink:href="#SourceHanSansCN-Regular-53" transform="translate(171.09375 0)"/>
     <use xlink:href="#SourceHanSansCN-Regular-50" transform="translate(208.796875 0)"/>
     <use xlink:href="#SourceHanSansCN-Regular-e" transform="translate(270.09375 0)"/>
     <use xlink:href="#SourceHanSansCN-Regular-43" transform="translate(304.796875 0)"/>
     <use xlink:href="#SourceHanSansCN-Regular-42" transform="translate(365 0)"/>
     <use xlink:href="#SourceHanSansCN-Regular-55" transform="translate(419.796875 0)"/>
     <use xlink:href="#SourceHanSansCN-Regular-44" transform="translate(456 0)"/>
     <use xlink:href="#SourceHanSansCN-Regular-49" transform="translate(507 0)"/>
     <use xlink:href="#SourceHanSansCN-Regular-1" transform="translate(567.703125 0)"/>
     <use xlink:href="#SourceHanSansCN-Regular-7786" transform="translate(590.109375 0)"/>
    </g>
   </g>
   <g id="text_24">
    <!-- micro-batch 2 -->
    <g style="fill: #ffffff" transform="translate(439.937181 162.980571) scale(0.12 -0.12)">
     <use xlink:href="#SourceHanSansCN-Regular-4e"/>
     <use xlink:href="#SourceHanSansCN-Regular-4a" transform="translate(92.59375 0)"/>
     <use xlink:href="#SourceHanSansCN-Regular-44" transform="translate(120.09375 0)"/>
     <use xlink:href="#SourceHanSansCN-Regular-53" transform="translate(171.09375 0)"/>
     <use xlink:href="#SourceHanSansCN-Regular-50" transform="translate(208.796875 0)"/>
     <use xlink:href="#SourceHanSansCN-Regular-e" transform="translate(270.09375 0)"/>
     <use xlink:href="#SourceHanSansCN-Regular-43" transform="translate(304.796875 0)"/>
     <use xlink:href="#SourceHanSansCN-Regular-42" transform="translate(365 0)"/>
     <use xlink:href="#SourceHanSansCN-Regular-55" transform="translate(419.796875 0)"/>
     <use xlink:href="#SourceHanSansCN-Regular-44" transform="translate(456 0)"/>
     <use xlink:href="#SourceHanSansCN-Regular-49" transform="translate(507 0)"/>
     <use xlink:href="#SourceHanSansCN-Regular-1" transform="translate(567.703125 0)"/>
     <use xlink:href="#SourceHanSansCN-Regular-7787" transform="translate(590.109375 0)"/>
    </g>
   </g>
   <g id="text_25">
    <!-- micro-batch 3 -->
    <g style="fill: #ffffff" transform="translate(536.985069 162.980571) scale(0.12 -0.12)">
     <use xlink:href="#SourceHanSansCN-Regular-4e"/>
     <use xlink:href="#SourceHanSansCN-Regular-4a" transform="translate(92.59375 0)"/>
     <use xlink:href="#SourceHanSansCN-Regular-44" transform="translate(120.09375 0)"/>
     <use xlink:href="#SourceHanSansCN-Regular-53" transform="translate(171.09375 0)"/>
     <use xlink:href="#SourceHanSansCN-Regular-50" transform="translate(208.796875 0)"/>
     <use xlink:href="#SourceHanSansCN-Regular-e" transform="translate(270.09375 0)"/>
     <use xlink:href="#SourceHanSansCN-Regular-43" transform="translate(304.796875 0)"/>
     <use xlink:href="#SourceHanSansCN-Regular-42" transform="translate(365 0)"/>
     <use xlink:href="#SourceHanSansCN-Regular-55" transform="translate(419.796875 0)"/>
     <use xlink:href="#SourceHanSansCN-Regular-44" transform="translate(456 0)"/>
     <use xlink:href="#SourceHanSansCN-Regular-49" transform="translate(507 0)"/>
     <use xlink:href="#SourceHanSansCN-Regular-1" transform="translate(567.703125 0)"/>
     <use xlink:href="#SourceHanSansCN-Regular-7788" transform="translate(590.109375 0)"/>
    </g>
   </g>
   <g id="text_26">
    <!-- micro-batch 0 -->
    <g style="fill: #ffffff" transform="translate(342.889294 219.757714) scale(0.12 -0.12)">
     <use xlink:href="#SourceHanSansCN-Regular-4e"/>
     <use xlink:href="#SourceHanSansCN-Regular-4a" transform="translate(92.59375 0)"/>
     <use xlink:href="#SourceHanSansCN-Regular-44" transform="translate(120.09375 0)"/>
     <use xlink:href="#SourceHanSansCN-Regular-53" transform="translate(171.09375 0)"/>
     <use xlink:href="#SourceHanSansCN-Regular-50" transform="translate(208.796875 0)"/>
     <use xlink:href="#SourceHanSansCN-Regular-e" transform="translate(270.09375 0)"/>
     <use xlink:href="#SourceHanSansCN-Regular-43" transform="translate(304.796875 0)"/>
     <use xlink:href="#SourceHanSansCN-Regular-42" transform="translate(365 0)"/>
     <use xlink:href="#SourceHanSansCN-Regular-55" transform="translate(419.796875 0)"/>
     <use xlink:href="#SourceHanSansCN-Regular-44" transform="translate(456 0)"/>
     <use xlink:href="#SourceHanSansCN-Regular-49" transform="translate(507 0)"/>
     <use xlink:href="#SourceHanSansCN-Regular-1" transform="translate(567.703125 0)"/>
     <use xlink:href="#SourceHanSansCN-Regular-7785" transform="translate(590.109375 0)"/>
    </g>
   </g>
   <g id="text_27">
    <!-- micro-batch 1 -->
    <g style="fill: #ffffff" transform="translate(439.937181 219.757714) scale(0.12 -0.12)">
     <use xlink:href="#SourceHanSansCN-Regular-4e"/>
     <use xlink:href="#SourceHanSansCN-Regular-4a" transform="translate(92.59375 0)"/>
     <use xlink:href="#SourceHanSansCN-Regular-44" transform="translate(120.09375 0)"/>
     <use xlink:href="#SourceHanSansCN-Regular-53" transform="translate(171.09375 0)"/>
     <use xlink:href="#SourceHanSansCN-Regular-50" transform="translate(208.796875 0)"/>
     <use xlink:href="#SourceHanSansCN-Regular-e" transform="translate(270.09375 0)"/>
     <use xlink:href="#SourceHanSansCN-Regular-43" transform="translate(304.796875 0)"/>
     <use xlink:href="#SourceHanSansCN-Regular-42" transform="translate(365 0)"/>
     <use xlink:href="#SourceHanSansCN-Regular-55" transform="translate(419.796875 0)"/>
     <use xlink:href="#SourceHanSansCN-Regular-44" transform="translate(456 0)"/>
     <use xlink:href="#SourceHanSansCN-Regular-49" transform="translate(507 0)"/>
     <use xlink:href="#SourceHanSansCN-Regular-1" transform="translate(567.703125 0)"/>
     <use xlink:href="#SourceHanSansCN-Regular-7786" transform="translate(590.109375 0)"/>
    </g>
   </g>
   <g id="text_28">
    <!-- micro-batch 2 -->
    <g style="fill: #ffffff" transform="translate(536.985069 219.757714) scale(0.12 -0.12)">
     <use xlink:href="#SourceHanSansCN-Regular-4e"/>
     <use xlink:href="#SourceHanSansCN-Regular-4a" transform="translate(92.59375 0)"/>
     <use xlink:href="#SourceHanSansCN-Regular-44" transform="translate(120.09375 0)"/>
     <use xlink:href="#SourceHanSansCN-Regular-53" transform="translate(171.09375 0)"/>
     <use xlink:href="#SourceHanSansCN-Regular-50" transform="translate(208.796875 0)"/>
     <use xlink:href="#SourceHanSansCN-Regular-e" transform="translate(270.09375 0)"/>
     <use xlink:href="#SourceHanSansCN-Regular-43" transform="translate(304.796875 0)"/>
     <use xlink:href="#SourceHanSansCN-Regular-42" transform="translate(365 0)"/>
     <use xlink:href="#SourceHanSansCN-Regular-55" transform="translate(419.796875 0)"/>
     <use xlink:href="#SourceHanSansCN-Regular-44" transform="translate(456 0)"/>
     <use xlink:href="#SourceHanSansCN-Regular-49" transform="translate(507 0)"/>
     <use xlink:href="#SourceHanSansCN-Regular-1" transform="translate(567.703125 0)"/>
     <use xlink:href="#SourceHanSansCN-Regular-7787" transform="translate(590.109375 0)"/>
    </g>
   </g>
   <g id="text_29">
    <!-- micro-batch 3 -->
    <g style="fill: #ffffff" transform="translate(634.032956 219.757714) scale(0.12 -0.12)">
     <use xlink:href="#SourceHanSansCN-Regular-4e"/>
     <use xlink:href="#SourceHanSansCN-Regular-4a" transform="translate(92.59375 0)"/>
     <use xlink:href="#SourceHanSansCN-Regular-44" transform="translate(120.09375 0)"/>
     <use xlink:href="#SourceHanSansCN-Regular-53" transform="translate(171.09375 0)"/>
     <use xlink:href="#SourceHanSansCN-Regular-50" transform="translate(208.796875 0)"/>
     <use xlink:href="#SourceHanSansCN-Regular-e" transform="translate(270.09375 0)"/>
     <use xlink:href="#SourceHanSansCN-Regular-43" transform="translate(304.796875 0)"/>
     <use xlink:href="#SourceHanSansCN-Regular-42" transform="translate(365 0)"/>
     <use xlink:href="#SourceHanSansCN-Regular-55" transform="translate(419.796875 0)"/>
     <use xlink:href="#SourceHanSansCN-Regular-44" transform="translate(456 0)"/>
     <use xlink:href="#SourceHanSansCN-Regular-49" transform="translate(507 0)"/>
     <use xlink:href="#SourceHanSansCN-Regular-1" transform="translate(567.703125 0)"/>
     <use xlink:href="#SourceHanSansCN-Regular-7788" transform="translate(590.109375 0)"/>
    </g>
   </g>
   <g id="text_30">
    <!-- 首个结果 -->
    <g style="fill: #203c48" transform="translate(437.913631 22.155429) scale(0.11 -0.11)">
     <defs>
      <path id="SourceHanSansCN-Regular-6d90" d="M 4966 2387 
L 4966 1997 
L 1453 1997 
L 1453 2387 
L 4966 2387 
z
M 4966 1344 
L 4966 960 
L 1453 960 
L 1453 1344 
L 4966 1344 
z
M 4986 282 
L 4986 -147 
L 1453 -147 
L 1453 282 
L 4986 282 
z
M 6074 4493 
L 6074 4045 
L 346 4045 
L 346 4493 
L 6074 4493 
z
M 5331 3450 
L 5331 -512 
L 4832 -512 
L 4832 3021 
L 1555 3021 
L 1555 -512 
L 1075 -512 
L 1075 3450 
L 5331 3450 
z
M 3552 4218 
Q 3462 3936 3360 3654 
Q 3258 3373 3162 3162 
L 2701 3232 
Q 2752 3379 2803 3561 
Q 2854 3744 2896 3929 
Q 2938 4115 2963 4262 
L 3552 4218 
z
M 5024 5248 
Q 4845 4992 4646 4736 
Q 4448 4480 4282 4294 
L 3866 4435 
Q 3974 4570 4089 4733 
Q 4205 4896 4313 5069 
Q 4422 5242 4493 5389 
L 5024 5248 
z
M 1882 5402 
Q 2061 5229 2227 5014 
Q 2394 4800 2483 4640 
L 2048 4410 
Q 1965 4576 1795 4803 
Q 1626 5030 1459 5216 
L 1882 5402 
z
" transform="scale(0.015625)"/>
      <path id="SourceHanSansCN-Regular-2276" d="M 3667 5184 
Q 3315 4602 2832 4080 
Q 2349 3558 1773 3132 
Q 1197 2707 582 2413 
Q 525 2522 425 2643 
Q 326 2765 224 2854 
Q 832 3117 1398 3504 
Q 1965 3891 2441 4371 
Q 2918 4851 3238 5382 
L 3667 5184 
z
M 3379 5030 
Q 3808 4506 4262 4106 
Q 4717 3706 5203 3402 
Q 5690 3098 6202 2842 
Q 6106 2765 6006 2643 
Q 5907 2522 5850 2406 
Q 5331 2682 4848 3014 
Q 4365 3347 3897 3788 
Q 3430 4230 2963 4819 
L 3379 5030 
z
M 3443 3488 
L 3443 -506 
L 2944 -506 
L 2944 3488 
L 3443 3488 
z
" transform="scale(0.015625)"/>
      <path id="SourceHanSansCN-Regular-52e4" d="M 403 1178 
Q 397 1229 365 1315 
Q 333 1402 304 1491 
Q 275 1581 243 1645 
Q 352 1664 473 1776 
Q 595 1888 749 2061 
Q 832 2144 992 2342 
Q 1152 2541 1353 2809 
Q 1555 3078 1760 3392 
Q 1965 3706 2138 4026 
L 2566 3757 
Q 2163 3117 1689 2509 
Q 1216 1901 742 1440 
L 742 1427 
Q 742 1427 691 1404 
Q 640 1382 573 1344 
Q 506 1306 454 1261 
Q 403 1216 403 1178 
z
M 384 1581 
L 634 1747 
L 2547 2054 
Q 2541 1958 2550 1836 
Q 2560 1715 2573 1638 
Q 1901 1517 1494 1440 
Q 1088 1363 873 1318 
Q 659 1274 560 1242 
Q 461 1210 403 1178 
L 384 1581 
z
M 358 2733 
Q 346 2784 317 2870 
Q 288 2957 256 3053 
Q 224 3149 192 3213 
Q 282 3232 371 3334 
Q 461 3437 557 3590 
Q 614 3667 716 3843 
Q 819 4019 944 4262 
Q 1069 4506 1197 4781 
Q 1325 5056 1414 5338 
L 1907 5133 
Q 1747 4749 1545 4368 
Q 1344 3987 1126 3638 
Q 909 3290 685 3008 
L 685 2995 
Q 685 2995 637 2969 
Q 589 2944 521 2902 
Q 454 2861 406 2816 
Q 358 2771 358 2733 
z
M 352 3091 
L 595 3245 
L 1939 3360 
Q 1920 3270 1910 3155 
Q 1901 3040 1901 2963 
Q 1440 2912 1155 2877 
Q 870 2842 713 2816 
Q 557 2790 480 2771 
Q 403 2752 358 2733 
L 352 3091 
z
M 224 339 
Q 525 390 905 464 
Q 1286 538 1712 624 
Q 2138 710 2560 794 
L 2598 352 
Q 1997 211 1392 83 
Q 787 -45 307 -154 
L 224 339 
z
M 6035 4518 
L 6035 4058 
L 2611 4058 
L 2611 4518 
L 6035 4518 
z
M 5926 3059 
L 5926 2598 
L 2771 2598 
L 2771 3059 
L 5926 3059 
z
M 5517 205 
L 5517 -230 
L 3200 -230 
L 3200 205 
L 5517 205 
z
M 4582 5382 
L 4582 2822 
L 4090 2822 
L 4090 5382 
L 4582 5382 
z
M 5766 1946 
L 5766 -480 
L 5286 -480 
L 5286 1510 
L 3405 1510 
L 3405 -506 
L 2938 -506 
L 2938 1946 
L 5766 1946 
z
" transform="scale(0.015625)"/>
      <path id="SourceHanSansCN-Regular-3bc3" d="M 6010 1978 
L 6010 1536 
L 397 1536 
L 397 1978 
L 6010 1978 
z
M 3456 4909 
L 3456 -512 
L 2950 -512 
L 2950 4909 
L 3456 4909 
z
M 3181 1613 
Q 2880 1210 2451 838 
Q 2022 467 1532 176 
Q 1043 -115 563 -301 
Q 525 -243 467 -166 
Q 410 -90 349 -22 
Q 288 45 230 96 
Q 589 211 953 390 
Q 1318 570 1660 794 
Q 2003 1018 2288 1274 
Q 2573 1530 2778 1792 
L 3181 1613 
z
M 3597 1811 
Q 3808 1549 4105 1299 
Q 4403 1050 4748 829 
Q 5094 608 5462 429 
Q 5830 250 6176 134 
Q 6125 90 6061 16 
Q 5997 -58 5942 -134 
Q 5888 -211 5850 -269 
Q 5498 -128 5130 77 
Q 4762 282 4413 531 
Q 4064 781 3757 1062 
Q 3450 1344 3219 1638 
L 3597 1811 
z
M 1510 2938 
L 4909 2938 
L 4909 3603 
L 1510 3603 
L 1510 2938 
z
M 1510 4000 
L 4909 4000 
L 4909 4653 
L 1510 4653 
L 1510 4000 
z
M 5427 5069 
L 5427 2522 
L 1018 2522 
L 1018 5069 
L 5427 5069 
z
" transform="scale(0.015625)"/>
     </defs>
     <use xlink:href="#SourceHanSansCN-Regular-6d90"/>
     <use xlink:href="#SourceHanSansCN-Regular-2276" transform="translate(100 0)"/>
     <use xlink:href="#SourceHanSansCN-Regular-52e4" transform="translate(200 0)"/>
     <use xlink:href="#SourceHanSansCN-Regular-3bc3" transform="translate(300 0)"/>
    </g>
   </g>
  </g>
 </g>
 <defs>
  <clipPath id="pea0a76eee5">
   <rect x="44.869688" y="10.8" width="689.04" height="238.464"/>
  </clipPath>
 </defs>
</svg>
