<?xml version="1.0" encoding="utf-8" standalone="no"?>
<!DOCTYPE svg PUBLIC "-//W3C//DTD SVG 1.1//EN"
  "http://www.w3.org/Graphics/SVG/1.1/DTD/svg11.dtd">
<svg xmlns:xlink="http://www.w3.org/1999/xlink" width="910.8pt" height="423.36pt" viewBox="0 0 910.8 423.36" xmlns="http://www.w3.org/2000/svg" version="1.1">
 <metadata>
  <rdf:RDF xmlns:dc="http://purl.org/dc/elements/1.1/" xmlns:cc="http://creativecommons.org/ns#" xmlns:rdf="http://www.w3.org/1999/02/22-rdf-syntax-ns#">
   <cc:Work>
    <dc:type rdf:resource="http://purl.org/dc/dcmitype/StillImage"/>
    <dc:date>2026-09-10T11:51:01.225052</dc:date>
    <dc:format>image/svg+xml</dc:format>
    <dc:creator>
     <cc:Agent>
      <dc:title>Matplotlib v3.11.1, https://matplotlib.org/</dc:title>
     </cc:Agent>
    </dc:creator>
   </cc:Work>
  </rdf:RDF>
 </metadata>
 <defs>
  <style type="text/css">*{stroke-linejoin: round; stroke-linecap: butt}</style>
 </defs>
 <g id="figure_1">
  <g id="patch_1">
   <path d="M 0 423.36 
L 910.8 423.36 
L 910.8 0 
L 0 0 
z
" style="fill: #ffffff"/>
  </g>
  <g id="axes_1">
   <g id="patch_2">
    <path d="M 192.1968 72.67104 
L 238.4352 72.67104 
Q 245.5488 72.67104 245.5488 69.45696 
L 245.5488 32.49504 
Q 245.5488 29.28096 238.4352 29.28096 
L 192.1968 29.28096 
Q 185.0832 29.28096 185.0832 32.49504 
L 185.0832 69.45696 
Q 185.0832 72.67104 192.1968 72.67104 
z
" clip-path="url(#p242b51345d)" style="fill: #eaf5f1; stroke: #c3d0d7; stroke-width: 1.1; stroke-linejoin: miter"/>
   </g>
   <g id="patch_3">
    <path d="M 255.33 72.67104 
L 301.5684 72.67104 
Q 308.682 72.67104 308.682 69.45696 
L 308.682 32.49504 
Q 308.682 29.28096 301.5684 29.28096 
L 255.33 29.28096 
Q 248.2164 29.28096 248.2164 32.49504 
L 248.2164 69.45696 
Q 248.2164 72.67104 255.33 72.67104 
z
" clip-path="url(#p242b51345d)" style="fill: #eaf5f1; stroke: #c3d0d7; stroke-width: 1.1; stroke-linejoin: miter"/>
   </g>
   <g id="patch_4">
    <path d="M 318.4632 72.67104 
L 364.7016 72.67104 
Q 371.8152 72.67104 371.8152 69.45696 
L 371.8152 32.49504 
Q 371.8152 29.28096 364.7016 29.28096 
L 318.4632 29.28096 
Q 311.3496 29.28096 311.3496 32.49504 
L 311.3496 69.45696 
Q 311.3496 72.67104 318.4632 72.67104 
z
" clip-path="url(#p242b51345d)" style="fill: #eaf5f1; stroke: #c3d0d7; stroke-width: 1.1; stroke-linejoin: miter"/>
   </g>
   <g id="patch_5">
    <path d="M 381.5964 72.67104 
L 427.8348 72.67104 
Q 434.9484 72.67104 434.9484 69.45696 
L 434.9484 32.49504 
Q 434.9484 29.28096 427.8348 29.28096 
L 381.5964 29.28096 
Q 374.4828 29.28096 374.4828 32.49504 
L 374.4828 69.45696 
Q 374.4828 72.67104 381.5964 72.67104 
z
" clip-path="url(#p242b51345d)" style="fill: #eaf5f1; stroke: #c3d0d7; stroke-width: 1.1; stroke-linejoin: miter"/>
   </g>
   <g id="patch_6">
    <path d="M 444.7296 72.67104 
L 490.968 72.67104 
Q 498.0816 72.67104 498.0816 69.45696 
L 498.0816 32.49504 
Q 498.0816 29.28096 490.968 29.28096 
L 444.7296 29.28096 
Q 437.616 29.28096 437.616 32.49504 
L 437.616 69.45696 
Q 437.616 72.67104 444.7296 72.67104 
z
" clip-path="url(#p242b51345d)" style="fill: #eaf5f1; stroke: #c3d0d7; stroke-width: 1.1; stroke-linejoin: miter"/>
   </g>
   <g id="patch_7">
    <path d="M 507.8628 72.67104 
L 554.1012 72.67104 
Q 561.2148 72.67104 561.2148 69.45696 
L 561.2148 32.49504 
Q 561.2148 29.28096 554.1012 29.28096 
L 507.8628 29.28096 
Q 500.7492 29.28096 500.7492 32.49504 
L 500.7492 69.45696 
Q 500.7492 72.67104 507.8628 72.67104 
z
" clip-path="url(#p242b51345d)" style="fill: #eaf5f1; stroke: #c3d0d7; stroke-width: 1.1; stroke-linejoin: miter"/>
   </g>
   <g id="patch_8">
    <path d="M 570.996 72.67104 
L 617.2344 72.67104 
Q 624.348 72.67104 624.348 69.45696 
L 624.348 32.49504 
Q 624.348 29.28096 617.2344 29.28096 
L 570.996 29.28096 
Q 563.8824 29.28096 563.8824 32.49504 
L 563.8824 69.45696 
Q 563.8824 72.67104 570.996 72.67104 
z
" clip-path="url(#p242b51345d)" style="fill: #eaf5f1; stroke: #c3d0d7; stroke-width: 1.1; stroke-linejoin: miter"/>
   </g>
   <g id="patch_9">
    <path d="M 634.1292 72.67104 
L 680.3676 72.67104 
Q 687.4812 72.67104 687.4812 69.45696 
L 687.4812 32.49504 
Q 687.4812 29.28096 680.3676 29.28096 
L 634.1292 29.28096 
Q 627.0156 29.28096 627.0156 32.49504 
L 627.0156 69.45696 
Q 627.0156 72.67104 634.1292 72.67104 
z
" clip-path="url(#p242b51345d)" style="fill: #eaf5f1; stroke: #c3d0d7; stroke-width: 1.1; stroke-linejoin: miter"/>
   </g>
   <g id="patch_10">
    <path d="M 697.2624 72.67104 
L 743.5008 72.67104 
Q 750.6144 72.67104 750.6144 69.45696 
L 750.6144 32.49504 
Q 750.6144 29.28096 743.5008 29.28096 
L 697.2624 29.28096 
Q 690.1488 29.28096 690.1488 32.49504 
L 690.1488 69.45696 
Q 690.1488 72.67104 697.2624 72.67104 
z
" clip-path="url(#p242b51345d)" style="fill: #eaf5f1; stroke: #c3d0d7; stroke-width: 1.1; stroke-linejoin: miter"/>
   </g>
   <g id="patch_11">
    <path d="M 760.3956 72.67104 
L 806.634 72.67104 
Q 813.7476 72.67104 813.7476 69.45696 
L 813.7476 32.49504 
Q 813.7476 29.28096 806.634 29.28096 
L 760.3956 29.28096 
Q 753.282 29.28096 753.282 32.49504 
L 753.282 69.45696 
Q 753.282 72.67104 760.3956 72.67104 
z
" clip-path="url(#p242b51345d)" style="fill: #fbf0e5; stroke: #c3d0d7; stroke-width: 1.1; stroke-linejoin: miter"/>
   </g>
   <g id="patch_12">
    <path d="M 192.1968 217.30464 
L 451.8432 217.30464 
Q 458.9568 217.30464 458.9568 214.09056 
L 458.9568 161.05824 
Q 458.9568 157.84416 451.8432 157.84416 
L 192.1968 157.84416 
Q 185.0832 157.84416 185.0832 161.05824 
L 185.0832 214.09056 
Q 185.0832 217.30464 192.1968 217.30464 
z
" clip-path="url(#p242b51345d)" style="fill: #eaf5f1; stroke: #c3d0d7; stroke-width: 1.1; stroke-linejoin: miter"/>
   </g>
   <g id="patch_13">
    <path d="M 466.294111 187.5744 
Q 495.416784 187.5744 522.750604 187.5744 
" clip-path="url(#p242b51345d)" style="fill: none; stroke: #16857b; stroke-width: 1.6; stroke-linecap: round"/>
    <path d="M 517.550604 184.9744 
L 522.750604 187.5744 
L 517.550604 190.1744 
z
" clip-path="url(#p242b51345d)" style="fill: #16857b; stroke: #16857b; stroke-width: 1.6; stroke-linecap: round"/>
   </g>
   <g id="patch_14">
    <path d="M 538.9848 217.30464 
L 647.4672 217.30464 
Q 654.5808 217.30464 654.5808 214.09056 
L 654.5808 161.05824 
Q 654.5808 157.84416 647.4672 157.84416 
L 538.9848 157.84416 
Q 531.8712 157.84416 531.8712 161.05824 
L 531.8712 214.09056 
Q 531.8712 217.30464 538.9848 217.30464 
z
" clip-path="url(#p242b51345d)" style="fill: #fbf0e5; stroke: #c3d0d7; stroke-width: 1.1; stroke-linejoin: miter"/>
   </g>
   <g id="patch_15">
    <path d="M 192.1968 345.86784 
L 451.8432 345.86784 
Q 458.9568 345.86784 458.9568 342.65376 
L 458.9568 289.62144 
Q 458.9568 286.40736 451.8432 286.40736 
L 192.1968 286.40736 
Q 185.0832 286.40736 185.0832 289.62144 
L 185.0832 342.65376 
Q 185.0832 345.86784 192.1968 345.86784 
z
" clip-path="url(#p242b51345d)" style="fill: #fbf0e5; stroke: #c3d0d7; stroke-width: 1.1; stroke-linejoin: miter"/>
   </g>
   <g id="patch_16">
    <path d="M 466.294111 316.1376 
Q 495.416784 316.1376 522.750604 316.1376 
" clip-path="url(#p242b51345d)" style="fill: none; stroke: #16857b; stroke-width: 1.6; stroke-linecap: round"/>
    <path d="M 517.550604 313.5376 
L 522.750604 316.1376 
L 517.550604 318.7376 
z
" clip-path="url(#p242b51345d)" style="fill: #16857b; stroke: #16857b; stroke-width: 1.6; stroke-linecap: round"/>
   </g>
   <g id="text_1">
    <text style="font-size: 13px; font-family: 'Arial Unicode MS'; text-anchor: start; fill: #203c48" x="28.584" y="38.9232" transform="rotate(-0 28.584 38.9232)">断连前已执行</text>
   </g>
   <g id="text_2">
    <text style="font-weight: 700; font-size: 11px; font-family: 'Arial Unicode MS'; text-anchor: middle; fill: #203c48" x="215.316" y="53.825365" transform="rotate(-0 215.316 53.825365)">1</text>
   </g>
   <g id="text_3">
    <text style="font-weight: 700; font-size: 11px; font-family: 'Arial Unicode MS'; text-anchor: middle; fill: #203c48" x="278.4492" y="53.825365" transform="rotate(-0 278.4492 53.825365)">2</text>
   </g>
   <g id="text_4">
    <text style="font-weight: 700; font-size: 11px; font-family: 'Arial Unicode MS'; text-anchor: middle; fill: #203c48" x="341.5824" y="53.825365" transform="rotate(-0 341.5824 53.825365)">3</text>
   </g>
   <g id="text_5">
    <text style="font-weight: 700; font-size: 11px; font-family: 'Arial Unicode MS'; text-anchor: middle; fill: #203c48" x="404.7156" y="53.825365" transform="rotate(-0 404.7156 53.825365)">4</text>
   </g>
   <g id="text_6">
    <text style="font-weight: 700; font-size: 11px; font-family: 'Arial Unicode MS'; text-anchor: middle; fill: #203c48" x="467.8488" y="53.825365" transform="rotate(-0 467.8488 53.825365)">5</text>
   </g>
   <g id="text_7">
    <text style="font-weight: 700; font-size: 11px; font-family: 'Arial Unicode MS'; text-anchor: middle; fill: #203c48" x="530.982" y="53.825365" transform="rotate(-0 530.982 53.825365)">6</text>
   </g>
   <g id="text_8">
    <text style="font-weight: 700; font-size: 11px; font-family: 'Arial Unicode MS'; text-anchor: middle; fill: #203c48" x="594.1152" y="53.825365" transform="rotate(-0 594.1152 53.825365)">7</text>
   </g>
   <g id="text_9">
    <text style="font-weight: 700; font-size: 11px; font-family: 'Arial Unicode MS'; text-anchor: middle; fill: #203c48" x="657.2484" y="53.825365" transform="rotate(-0 657.2484 53.825365)">8</text>
   </g>
   <g id="text_10">
    <text style="font-weight: 700; font-size: 11px; font-family: 'Arial Unicode MS'; text-anchor: middle; fill: #203c48" x="720.3816" y="53.825365" transform="rotate(-0 720.3816 53.825365)">9</text>
   </g>
   <g id="text_11">
    <text style="font-weight: 700; font-size: 11px; font-family: 'Arial Unicode MS'; text-anchor: middle; fill: #203c48" x="783.5148" y="53.825365" transform="rotate(-0 783.5148 53.825365)">10</text>
   </g>
   <g id="text_12">
    <text style="font-size: 11px; font-family: 'Arial Unicode MS'; text-anchor: middle; fill: #bc722b" x="748.836" y="99.1872" transform="rotate(-0 748.836 99.1872)">第 10 轮确认丢失</text>
   </g>
   <g id="text_13">
    <text style="font-size: 13px; font-family: 'Arial Unicode MS'; text-anchor: start; fill: #203c48" x="28.584" y="175.5216" transform="rotate(-0 28.584 175.5216)">保留进度</text>
   </g>
   <g id="text_14">
    <text style="font-weight: 700; font-size: 13px; font-family: 'Arial Unicode MS'; text-anchor: middle; fill: #203c48" x="322.02" y="180.387874" transform="rotate(-0 322.02 180.387874)">第 1–9 轮已提交</text>
   </g>
   <g id="text_15">
    <text style="font-size: 10px; font-family: 'Arial Unicode MS'; text-anchor: middle; fill: #546e7a" x="322.02" y="204.332166" transform="rotate(-0 322.02 204.332166)">从第 10 轮继续</text>
   </g>
   <g id="text_16">
    <text style="font-weight: 700; font-size: 12px; font-family: 'Arial Unicode MS'; text-anchor: middle; fill: #203c48" x="593.226" y="180.075354" transform="rotate(-0 593.226 180.075354)">重做 1 轮</text>
   </g>
   <g id="text_17">
    <text style="font-size: 10px; font-family: 'Arial Unicode MS'; text-anchor: middle; fill: #546e7a" x="593.226" y="204.046228" transform="rotate(-0 593.226 204.046228)">1.9 s</text>
   </g>
   <g id="text_18">
    <text style="font-size: 13px; font-family: 'Arial Unicode MS'; fill: #203c48" transform="translate(686.592 183.94938)">恢复 1 s + 1.9 s</text>
    <text style="font-size: 13px; font-family: 'Arial Unicode MS'; fill: #203c48" transform="translate(686.592 199.286334)">额外 2.9 s</text>
   </g>
   <g id="text_19">
    <text style="font-size: 13px; font-family: 'Arial Unicode MS'; text-anchor: start; fill: #203c48" x="28.584" y="304.0848" transform="rotate(-0 28.584 304.0848)">丢失进度</text>
   </g>
   <g id="text_20">
    <text style="font-weight: 700; font-size: 13px; font-family: 'Arial Unicode MS'; text-anchor: middle; fill: #203c48" x="322.02" y="308.951074" transform="rotate(-0 322.02 308.951074)">重做第 1–10 轮</text>
   </g>
   <g id="text_21">
    <text style="font-size: 10px; font-family: 'Arial Unicode MS'; text-anchor: middle; fill: #546e7a" x="322.02" y="332.609428" transform="rotate(-0 322.02 332.609428)">10 × 1.9 s</text>
   </g>
   <g id="text_22">
    <text style="font-size: 13px; font-family: 'Arial Unicode MS'; fill: #203c48" transform="translate(544.32 312.51258)">恢复 1 s + 19 s</text>
    <text style="font-size: 13px; font-family: 'Arial Unicode MS'; fill: #203c48" transform="translate(544.32 327.849534)">额外 20 s</text>
   </g>
  </g>
 </g>
 <defs>
  <clipPath id="p242b51345d">
   <rect x="10.8" y="10.8" width="889.2" height="401.76"/>
  </clipPath>
 </defs>
</svg>
