<?xml version="1.0" encoding="utf-8" standalone="no"?>
<!DOCTYPE svg PUBLIC "-//W3C//DTD SVG 1.1//EN"
  "http://www.w3.org/Graphics/SVG/1.1/DTD/svg11.dtd">
<svg xmlns:xlink="http://www.w3.org/1999/xlink" width="901.44pt" height="621.49457pt" viewBox="0 0 901.44 621.49457" xmlns="http://www.w3.org/2000/svg" version="1.1">
 <metadata>
  <rdf:RDF xmlns:dc="http://purl.org/dc/elements/1.1/" xmlns:cc="http://creativecommons.org/ns#" xmlns:rdf="http://www.w3.org/1999/02/22-rdf-syntax-ns#">
   <cc:Work>
    <dc:type rdf:resource="http://purl.org/dc/dcmitype/StillImage"/>
    <dc:date>2026-09-10T11:54:03.158926</dc:date>
    <dc:format>image/svg+xml</dc:format>
    <dc:creator>
     <cc:Agent>
      <dc:title>Matplotlib v3.11.1, https://matplotlib.org/</dc:title>
     </cc:Agent>
    </dc:creator>
   </cc:Work>
  </rdf:RDF>
 </metadata>
 <defs>
  <style type="text/css">*{stroke-linejoin: round; stroke-linecap: butt}</style>
 </defs>
 <g id="figure_1">
  <g id="patch_1">
   <path d="M 0 621.49457 
L 901.44 621.49457 
L 901.44 0 
L 0 0 
z
" style="fill: #ffffff"/>
  </g>
  <g id="axes_1">
   <g id="patch_2">
    <path d="M 10.8 114.2208 
L 282.24 114.2208 
L 282.24 55.1232 
L 10.8 55.1232 
z
" clip-path="url(#pa6dcde7b8c)" style="fill: #eef4f7; stroke: #eef4f7; stroke-linejoin: miter"/>
   </g>
   <g id="patch_3">
    <path d="M 10.8 200.4048 
L 282.24 200.4048 
L 282.24 141.3072 
L 10.8 141.3072 
z
" clip-path="url(#pa6dcde7b8c)" style="fill: #eaf5f1; stroke: #eaf5f1; stroke-linejoin: miter"/>
   </g>
   <g id="patch_4">
    <path d="M 58.083311 84.672 
Q 78.658301 84.672 97.668043 84.672 
" clip-path="url(#pa6dcde7b8c)" style="fill: none; stroke: #16857b; stroke-width: 1.4; stroke-linecap: round"/>
    <path d="M 93.268043 82.472 
L 97.668043 84.672 
L 93.268043 86.872 
z
" clip-path="url(#pa6dcde7b8c)" style="fill: #16857b; stroke: #16857b; stroke-width: 1.4; stroke-linecap: round"/>
   </g>
   <g id="patch_5">
    <path d="M 123.228911 84.672 
Q 143.803901 84.672 162.813643 84.672 
" clip-path="url(#pa6dcde7b8c)" style="fill: none; stroke: #16857b; stroke-width: 1.4; stroke-linecap: round"/>
    <path d="M 158.413643 82.472 
L 162.813643 84.672 
L 158.413643 86.872 
z
" clip-path="url(#pa6dcde7b8c)" style="fill: #16857b; stroke: #16857b; stroke-width: 1.4; stroke-linecap: round"/>
   </g>
   <g id="patch_6">
    <path d="M 188.374511 84.672 
Q 208.949501 84.672 227.959243 84.672 
" clip-path="url(#pa6dcde7b8c)" style="fill: none; stroke: #16857b; stroke-width: 1.4; stroke-linecap: round"/>
    <path d="M 223.559243 82.472 
L 227.959243 84.672 
L 223.559243 86.872 
z
" clip-path="url(#pa6dcde7b8c)" style="fill: #16857b; stroke: #16857b; stroke-width: 1.4; stroke-linecap: round"/>
   </g>
   <g id="patch_7">
    <path d="M 230.546783 89.512749 
Q 143.806927 127.763415 58.499247 165.382518 
" clip-path="url(#pa6dcde7b8c)" style="fill: none; stroke: #bc722b; stroke-width: 1.4; stroke-linecap: round"/>
    <path d="M 63.412855 165.620122 
L 58.499247 165.382518 
L 61.637496 161.594194 
z
" clip-path="url(#pa6dcde7b8c)" style="fill: #bc722b; stroke: #bc722b; stroke-width: 1.4; stroke-linecap: round"/>
   </g>
   <g id="patch_8">
    <path d="M 58.083311 170.856 
Q 78.658301 170.856 97.668043 170.856 
" clip-path="url(#pa6dcde7b8c)" style="fill: none; stroke: #16857b; stroke-width: 1.4; stroke-linecap: round"/>
    <path d="M 93.268043 168.656 
L 97.668043 170.856 
L 93.268043 173.056 
z
" clip-path="url(#pa6dcde7b8c)" style="fill: #16857b; stroke: #16857b; stroke-width: 1.4; stroke-linecap: round"/>
   </g>
   <g id="patch_9">
    <path d="M 123.228911 170.856 
Q 143.803901 170.856 162.813643 170.856 
" clip-path="url(#pa6dcde7b8c)" style="fill: none; stroke: #16857b; stroke-width: 1.4; stroke-linecap: round"/>
    <path d="M 158.413643 168.656 
L 162.813643 170.856 
L 158.413643 173.056 
z
" clip-path="url(#pa6dcde7b8c)" style="fill: #16857b; stroke: #16857b; stroke-width: 1.4; stroke-linecap: round"/>
   </g>
   <g id="patch_10">
    <path d="M 188.374511 170.856 
Q 208.949501 170.856 227.959243 170.856 
" clip-path="url(#pa6dcde7b8c)" style="fill: none; stroke: #16857b; stroke-width: 1.4; stroke-linecap: round"/>
    <path d="M 223.559243 168.656 
L 227.959243 170.856 
L 223.559243 173.056 
z
" clip-path="url(#pa6dcde7b8c)" style="fill: #16857b; stroke: #16857b; stroke-width: 1.4; stroke-linecap: round"/>
   </g>
   <g id="patch_11">
    <path d="M 232.018561 163.533966 
Q 153.853508 104.977643 59.440901 87.044597 
" clip-path="url(#pa6dcde7b8c)" style="fill: none; stroke: #bc722b; stroke-width: 1.4; stroke-linecap: round"/>
    <path d="M 63.353078 90.027024 
L 59.440901 87.044597 
L 64.174149 85.704312 
z
" clip-path="url(#pa6dcde7b8c)" style="fill: #bc722b; stroke: #bc722b; stroke-width: 1.4; stroke-linecap: round"/>
   </g>
   <g id="text_1">
    <text style="font-weight: 700; font-size: 13px; font-family: 'Arial Unicode MS'; text-anchor: middle; fill: #203c48" x="146.52" y="26.553394" transform="rotate(-0 146.52 26.553394)">连续平坦环</text>
   </g>
   <g id="text_2">
    <text style="font-size: 9px; font-family: 'Arial Unicode MS'; text-anchor: start; fill: #203c48" x="13.5144" y="45.2736" transform="rotate(-0 13.5144 45.2736)">服务器 A</text>
   </g>
   <g id="text_3">
    <text style="font-size: 9px; font-family: 'Arial Unicode MS'; text-anchor: start; fill: #203c48" x="13.5144" y="220.104" transform="rotate(-0 13.5144 220.104)">服务器 B</text>
   </g>
   <g id="text_4">
    <text style="font-size: 11px; font-family: 'Arial Unicode MS'; text-anchor: middle; fill: #bc722b" x="146.52" y="247.1904" transform="rotate(-0 146.52 247.1904)">2 条边跨服务器</text>
   </g>
   <g id="PathCollection_1">
    <defs>
     <path id="m85d322c409" d="M 0 9.219544 
C 2.445052 9.219544 4.79029 8.248115 6.519202 6.519202 
C 8.248115 4.79029 9.219544 2.445052 9.219544 0 
C 9.219544 -2.445052 8.248115 -4.79029 6.519202 -6.519202 
C 4.79029 -8.248115 2.445052 -9.219544 0 -9.219544 
C -2.445052 -9.219544 -4.79029 -8.248115 -6.519202 -6.519202 
C -8.248115 -4.79029 -9.219544 -2.445052 -9.219544 0 
C -9.219544 2.445052 -8.248115 4.79029 -6.519202 6.519202 
C -4.79029 8.248115 -2.445052 9.219544 0 9.219544 
z
" style="stroke: #203c48"/>
    </defs>
    <g clip-path="url(#pa6dcde7b8c)">
     <use xlink:href="#m85d322c409" x="46.0872" y="84.672" style="fill: #ffffff; stroke: #203c48"/>
    </g>
   </g>
   <g id="PathCollection_2">
    <g clip-path="url(#pa6dcde7b8c)">
     <use xlink:href="#m85d322c409" x="111.2328" y="84.672" style="fill: #ffffff; stroke: #203c48"/>
    </g>
   </g>
   <g id="PathCollection_3">
    <g clip-path="url(#pa6dcde7b8c)">
     <use xlink:href="#m85d322c409" x="176.3784" y="84.672" style="fill: #ffffff; stroke: #203c48"/>
    </g>
   </g>
   <g id="PathCollection_4">
    <g clip-path="url(#pa6dcde7b8c)">
     <use xlink:href="#m85d322c409" x="241.524" y="84.672" style="fill: #ffffff; stroke: #203c48"/>
    </g>
   </g>
   <g id="PathCollection_5">
    <g clip-path="url(#pa6dcde7b8c)">
     <use xlink:href="#m85d322c409" x="46.0872" y="170.856" style="fill: #ffffff; stroke: #203c48"/>
    </g>
   </g>
   <g id="PathCollection_6">
    <g clip-path="url(#pa6dcde7b8c)">
     <use xlink:href="#m85d322c409" x="111.2328" y="170.856" style="fill: #ffffff; stroke: #203c48"/>
    </g>
   </g>
   <g id="PathCollection_7">
    <g clip-path="url(#pa6dcde7b8c)">
     <use xlink:href="#m85d322c409" x="176.3784" y="170.856" style="fill: #ffffff; stroke: #203c48"/>
    </g>
   </g>
   <g id="PathCollection_8">
    <g clip-path="url(#pa6dcde7b8c)">
     <use xlink:href="#m85d322c409" x="241.524" y="170.856" style="fill: #ffffff; stroke: #203c48"/>
    </g>
   </g>
   <g id="text_5">
    <text style="font-size: 10px; font-family: 'Arial Unicode MS'; text-anchor: middle; fill: #203c48" x="46.0872" y="87.262332" transform="rotate(-0 46.0872 87.262332)">0</text>
   </g>
   <g id="text_6">
    <text style="font-size: 10px; font-family: 'Arial Unicode MS'; text-anchor: middle; fill: #203c48" x="111.2328" y="87.262332" transform="rotate(-0 111.2328 87.262332)">1</text>
   </g>
   <g id="text_7">
    <text style="font-size: 10px; font-family: 'Arial Unicode MS'; text-anchor: middle; fill: #203c48" x="176.3784" y="87.262332" transform="rotate(-0 176.3784 87.262332)">2</text>
   </g>
   <g id="text_8">
    <text style="font-size: 10px; font-family: 'Arial Unicode MS'; text-anchor: middle; fill: #203c48" x="241.524" y="87.262332" transform="rotate(-0 241.524 87.262332)">3</text>
   </g>
   <g id="text_9">
    <text style="font-size: 10px; font-family: 'Arial Unicode MS'; text-anchor: middle; fill: #203c48" x="46.0872" y="173.446332" transform="rotate(-0 46.0872 173.446332)">4</text>
   </g>
   <g id="text_10">
    <text style="font-size: 10px; font-family: 'Arial Unicode MS'; text-anchor: middle; fill: #203c48" x="111.2328" y="173.446332" transform="rotate(-0 111.2328 173.446332)">5</text>
   </g>
   <g id="text_11">
    <text style="font-size: 10px; font-family: 'Arial Unicode MS'; text-anchor: middle; fill: #203c48" x="176.3784" y="173.446332" transform="rotate(-0 176.3784 173.446332)">6</text>
   </g>
   <g id="text_12">
    <text style="font-size: 10px; font-family: 'Arial Unicode MS'; text-anchor: middle; fill: #203c48" x="241.524" y="173.446332" transform="rotate(-0 241.524 173.446332)">7</text>
   </g>
  </g>
  <g id="axes_2">
   <g id="patch_12">
    <path d="M 315 114.2208 
L 586.44 114.2208 
L 586.44 55.1232 
L 315 55.1232 
z
" clip-path="url(#p66692a204a)" style="fill: #eef4f7; stroke: #eef4f7; stroke-linejoin: miter"/>
   </g>
   <g id="patch_13">
    <path d="M 315 200.4048 
L 586.44 200.4048 
L 586.44 141.3072 
L 315 141.3072 
z
" clip-path="url(#p66692a204a)" style="fill: #eaf5f1; stroke: #eaf5f1; stroke-linejoin: miter"/>
   </g>
   <g id="patch_14">
    <path d="M 350.2872 96.673269 
Q 350.2872 127.763096 350.2872 157.287675 
" clip-path="url(#p66692a204a)" style="fill: none; stroke: #bc722b; stroke-width: 1.4; stroke-linecap: round"/>
    <path d="M 352.4872 152.887675 
L 350.2872 157.287675 
L 348.0872 152.887675 
z
" clip-path="url(#p66692a204a)" style="fill: #bc722b; stroke: #bc722b; stroke-width: 1.4; stroke-linecap: round"/>
   </g>
   <g id="patch_15">
    <path d="M 357.521845 161.284968 
Q 382.858771 127.765625 407.251849 95.494942 
" clip-path="url(#p66692a204a)" style="fill: none; stroke: #bc722b; stroke-width: 1.4; stroke-linecap: round"/>
    <path d="M 402.843611 97.678388 
L 407.251849 95.494942 
L 406.353663 100.3316 
z
" clip-path="url(#p66692a204a)" style="fill: #bc722b; stroke: #bc722b; stroke-width: 1.4; stroke-linecap: round"/>
   </g>
   <g id="patch_16">
    <path d="M 415.4328 96.673269 
Q 415.4328 127.763096 415.4328 157.287675 
" clip-path="url(#p66692a204a)" style="fill: none; stroke: #bc722b; stroke-width: 1.4; stroke-linecap: round"/>
    <path d="M 417.6328 152.887675 
L 415.4328 157.287675 
L 413.2328 152.887675 
z
" clip-path="url(#p66692a204a)" style="fill: #bc722b; stroke: #bc722b; stroke-width: 1.4; stroke-linecap: round"/>
   </g>
   <g id="patch_17">
    <path d="M 422.667445 161.284968 
Q 448.004371 127.765625 472.397449 95.494942 
" clip-path="url(#p66692a204a)" style="fill: none; stroke: #bc722b; stroke-width: 1.4; stroke-linecap: round"/>
    <path d="M 467.989211 97.678388 
L 472.397449 95.494942 
L 471.499263 100.3316 
z
" clip-path="url(#p66692a204a)" style="fill: #bc722b; stroke: #bc722b; stroke-width: 1.4; stroke-linecap: round"/>
   </g>
   <g id="patch_18">
    <path d="M 480.5784 96.673269 
Q 480.5784 127.763096 480.5784 157.287675 
" clip-path="url(#p66692a204a)" style="fill: none; stroke: #bc722b; stroke-width: 1.4; stroke-linecap: round"/>
    <path d="M 482.7784 152.887675 
L 480.5784 157.287675 
L 478.3784 152.887675 
z
" clip-path="url(#p66692a204a)" style="fill: #bc722b; stroke: #bc722b; stroke-width: 1.4; stroke-linecap: round"/>
   </g>
   <g id="patch_19">
    <path d="M 487.813045 161.284968 
Q 513.149971 127.765625 537.543049 95.494942 
" clip-path="url(#p66692a204a)" style="fill: none; stroke: #bc722b; stroke-width: 1.4; stroke-linecap: round"/>
    <path d="M 533.134811 97.678388 
L 537.543049 95.494942 
L 536.644863 100.3316 
z
" clip-path="url(#p66692a204a)" style="fill: #bc722b; stroke: #bc722b; stroke-width: 1.4; stroke-linecap: round"/>
   </g>
   <g id="patch_20">
    <path d="M 545.724 96.673269 
Q 545.724 127.763096 545.724 157.287675 
" clip-path="url(#p66692a204a)" style="fill: none; stroke: #bc722b; stroke-width: 1.4; stroke-linecap: round"/>
    <path d="M 547.924 152.887675 
L 545.724 157.287675 
L 543.524 152.887675 
z
" clip-path="url(#p66692a204a)" style="fill: #bc722b; stroke: #bc722b; stroke-width: 1.4; stroke-linecap: round"/>
   </g>
   <g id="patch_21">
    <path d="M 536.218561 163.533966 
Q 458.053508 104.977643 363.640901 87.044597 
" clip-path="url(#p66692a204a)" style="fill: none; stroke: #bc722b; stroke-width: 1.4; stroke-linecap: round"/>
    <path d="M 367.553078 90.027024 
L 363.640901 87.044597 
L 368.374149 85.704312 
z
" clip-path="url(#p66692a204a)" style="fill: #bc722b; stroke: #bc722b; stroke-width: 1.4; stroke-linecap: round"/>
   </g>
   <g id="text_13">
    <text style="font-weight: 700; font-size: 13px; font-family: 'Arial Unicode MS'; text-anchor: middle; fill: #203c48" x="450.72" y="26.502612" transform="rotate(-0 450.72 26.502612)">交错平坦环</text>
   </g>
   <g id="text_14">
    <text style="font-size: 9px; font-family: 'Arial Unicode MS'; text-anchor: start; fill: #203c48" x="317.7144" y="45.2736" transform="rotate(-0 317.7144 45.2736)">服务器 A</text>
   </g>
   <g id="text_15">
    <text style="font-size: 9px; font-family: 'Arial Unicode MS'; text-anchor: start; fill: #203c48" x="317.7144" y="220.104" transform="rotate(-0 317.7144 220.104)">服务器 B</text>
   </g>
   <g id="text_16">
    <text style="font-size: 11px; font-family: 'Arial Unicode MS'; text-anchor: middle; fill: #bc722b" x="450.72" y="247.1904" transform="rotate(-0 450.72 247.1904)">8 条边跨服务器</text>
   </g>
   <g id="PathCollection_9">
    <g clip-path="url(#p66692a204a)">
     <use xlink:href="#m85d322c409" x="350.2872" y="84.672" style="fill: #ffffff; stroke: #203c48"/>
    </g>
   </g>
   <g id="PathCollection_10">
    <g clip-path="url(#p66692a204a)">
     <use xlink:href="#m85d322c409" x="415.4328" y="84.672" style="fill: #ffffff; stroke: #203c48"/>
    </g>
   </g>
   <g id="PathCollection_11">
    <g clip-path="url(#p66692a204a)">
     <use xlink:href="#m85d322c409" x="480.5784" y="84.672" style="fill: #ffffff; stroke: #203c48"/>
    </g>
   </g>
   <g id="PathCollection_12">
    <g clip-path="url(#p66692a204a)">
     <use xlink:href="#m85d322c409" x="545.724" y="84.672" style="fill: #ffffff; stroke: #203c48"/>
    </g>
   </g>
   <g id="PathCollection_13">
    <g clip-path="url(#p66692a204a)">
     <use xlink:href="#m85d322c409" x="350.2872" y="170.856" style="fill: #ffffff; stroke: #203c48"/>
    </g>
   </g>
   <g id="PathCollection_14">
    <g clip-path="url(#p66692a204a)">
     <use xlink:href="#m85d322c409" x="415.4328" y="170.856" style="fill: #ffffff; stroke: #203c48"/>
    </g>
   </g>
   <g id="PathCollection_15">
    <g clip-path="url(#p66692a204a)">
     <use xlink:href="#m85d322c409" x="480.5784" y="170.856" style="fill: #ffffff; stroke: #203c48"/>
    </g>
   </g>
   <g id="PathCollection_16">
    <g clip-path="url(#p66692a204a)">
     <use xlink:href="#m85d322c409" x="545.724" y="170.856" style="fill: #ffffff; stroke: #203c48"/>
    </g>
   </g>
   <g id="text_17">
    <text style="font-size: 10px; font-family: 'Arial Unicode MS'; text-anchor: middle; fill: #203c48" x="350.2872" y="87.262332" transform="rotate(-0 350.2872 87.262332)">0</text>
   </g>
   <g id="text_18">
    <text style="font-size: 10px; font-family: 'Arial Unicode MS'; text-anchor: middle; fill: #203c48" x="415.4328" y="87.262332" transform="rotate(-0 415.4328 87.262332)">1</text>
   </g>
   <g id="text_19">
    <text style="font-size: 10px; font-family: 'Arial Unicode MS'; text-anchor: middle; fill: #203c48" x="480.5784" y="87.262332" transform="rotate(-0 480.5784 87.262332)">2</text>
   </g>
   <g id="text_20">
    <text style="font-size: 10px; font-family: 'Arial Unicode MS'; text-anchor: middle; fill: #203c48" x="545.724" y="87.262332" transform="rotate(-0 545.724 87.262332)">3</text>
   </g>
   <g id="text_21">
    <text style="font-size: 10px; font-family: 'Arial Unicode MS'; text-anchor: middle; fill: #203c48" x="350.2872" y="173.446332" transform="rotate(-0 350.2872 173.446332)">4</text>
   </g>
   <g id="text_22">
    <text style="font-size: 10px; font-family: 'Arial Unicode MS'; text-anchor: middle; fill: #203c48" x="415.4328" y="173.446332" transform="rotate(-0 415.4328 173.446332)">5</text>
   </g>
   <g id="text_23">
    <text style="font-size: 10px; font-family: 'Arial Unicode MS'; text-anchor: middle; fill: #203c48" x="480.5784" y="173.446332" transform="rotate(-0 480.5784 173.446332)">6</text>
   </g>
   <g id="text_24">
    <text style="font-size: 10px; font-family: 'Arial Unicode MS'; text-anchor: middle; fill: #203c48" x="545.724" y="173.446332" transform="rotate(-0 545.724 173.446332)">7</text>
   </g>
  </g>
  <g id="axes_3">
   <g id="patch_22">
    <path d="M 619.2 114.2208 
L 890.64 114.2208 
L 890.64 55.1232 
L 619.2 55.1232 
z
" clip-path="url(#p7d5116b08d)" style="fill: #eef4f7; stroke: #eef4f7; stroke-linejoin: miter"/>
   </g>
   <g id="patch_23">
    <path d="M 619.2 200.4048 
L 890.64 200.4048 
L 890.64 141.3072 
L 619.2 141.3072 
z
" clip-path="url(#p7d5116b08d)" style="fill: #eaf5f1; stroke: #eaf5f1; stroke-linejoin: miter"/>
   </g>
   <g id="patch_24">
    <path d="M 654.4872 103.124902 
Q 654.4872 127.766019 654.4872 152.407136 
" clip-path="url(#p7d5116b08d)" style="fill: none; stroke: #bc722b; stroke-width: 1.5; stroke-linecap: round"/>
    <path d="M 652.4872 107.124902 
L 654.4872 103.124902 
L 656.4872 107.124902 
" clip-path="url(#p7d5116b08d)" style="fill: none; stroke: #bc722b; stroke-width: 1.5; stroke-linecap: round"/>
    <path d="M 656.4872 148.407136 
L 654.4872 152.407136 
L 652.4872 148.407136 
" clip-path="url(#p7d5116b08d)" style="fill: none; stroke: #bc722b; stroke-width: 1.5; stroke-linecap: round"/>
   </g>
   <g id="patch_25">
    <path d="M 719.6328 103.124902 
Q 719.6328 127.766019 719.6328 152.407136 
" clip-path="url(#p7d5116b08d)" style="fill: none; stroke: #bc722b; stroke-width: 1.5; stroke-linecap: round"/>
    <path d="M 717.6328 107.124902 
L 719.6328 103.124902 
L 721.6328 107.124902 
" clip-path="url(#p7d5116b08d)" style="fill: none; stroke: #bc722b; stroke-width: 1.5; stroke-linecap: round"/>
    <path d="M 721.6328 148.407136 
L 719.6328 152.407136 
L 717.6328 148.407136 
" clip-path="url(#p7d5116b08d)" style="fill: none; stroke: #bc722b; stroke-width: 1.5; stroke-linecap: round"/>
   </g>
   <g id="patch_26">
    <path d="M 784.7784 103.124902 
Q 784.7784 127.766019 784.7784 152.407136 
" clip-path="url(#p7d5116b08d)" style="fill: none; stroke: #bc722b; stroke-width: 1.5; stroke-linecap: round"/>
    <path d="M 782.7784 107.124902 
L 784.7784 103.124902 
L 786.7784 107.124902 
" clip-path="url(#p7d5116b08d)" style="fill: none; stroke: #bc722b; stroke-width: 1.5; stroke-linecap: round"/>
    <path d="M 786.7784 148.407136 
L 784.7784 152.407136 
L 782.7784 148.407136 
" clip-path="url(#p7d5116b08d)" style="fill: none; stroke: #bc722b; stroke-width: 1.5; stroke-linecap: round"/>
   </g>
   <g id="patch_27">
    <path d="M 849.924 103.124902 
Q 849.924 127.766019 849.924 152.407136 
" clip-path="url(#p7d5116b08d)" style="fill: none; stroke: #bc722b; stroke-width: 1.5; stroke-linecap: round"/>
    <path d="M 847.924 107.124902 
L 849.924 103.124902 
L 851.924 107.124902 
" clip-path="url(#p7d5116b08d)" style="fill: none; stroke: #bc722b; stroke-width: 1.5; stroke-linecap: round"/>
    <path d="M 851.924 148.407136 
L 849.924 152.407136 
L 847.924 148.407136 
" clip-path="url(#p7d5116b08d)" style="fill: none; stroke: #bc722b; stroke-width: 1.5; stroke-linecap: round"/>
   </g>
   <g id="text_25">
    <text style="font-weight: 700; font-size: 13px; font-family: 'Arial Unicode MS'; text-anchor: middle; fill: #203c48" x="754.92" y="26.5798" transform="rotate(-0 754.92 26.5798)">分层归约</text>
   </g>
   <g id="text_26">
    <text style="font-size: 9px; font-family: 'Arial Unicode MS'; text-anchor: start; fill: #203c48" x="621.9144" y="45.2736" transform="rotate(-0 621.9144 45.2736)">服务器 A</text>
   </g>
   <g id="text_27">
    <text style="font-size: 9px; font-family: 'Arial Unicode MS'; text-anchor: start; fill: #203c48" x="621.9144" y="220.104" transform="rotate(-0 621.9144 220.104)">服务器 B</text>
   </g>
   <g id="text_28">
    <text style="font-size: 10px; font-family: 'Arial Unicode MS'; text-anchor: middle; fill: #203c48" x="754.92" y="247.1904" transform="rotate(-0 754.92 247.1904)">本地分散归约后：各持 48 MiB</text>
   </g>
   <g id="PathCollection_17">
    <g clip-path="url(#p7d5116b08d)">
     <use xlink:href="#m85d322c409" x="654.4872" y="84.672" style="fill: #ffffff; stroke: #203c48"/>
    </g>
   </g>
   <g id="PathCollection_18">
    <g clip-path="url(#p7d5116b08d)">
     <use xlink:href="#m85d322c409" x="719.6328" y="84.672" style="fill: #ffffff; stroke: #203c48"/>
    </g>
   </g>
   <g id="PathCollection_19">
    <g clip-path="url(#p7d5116b08d)">
     <use xlink:href="#m85d322c409" x="784.7784" y="84.672" style="fill: #ffffff; stroke: #203c48"/>
    </g>
   </g>
   <g id="PathCollection_20">
    <g clip-path="url(#p7d5116b08d)">
     <use xlink:href="#m85d322c409" x="849.924" y="84.672" style="fill: #ffffff; stroke: #203c48"/>
    </g>
   </g>
   <g id="PathCollection_21">
    <g clip-path="url(#p7d5116b08d)">
     <use xlink:href="#m85d322c409" x="654.4872" y="170.856" style="fill: #ffffff; stroke: #203c48"/>
    </g>
   </g>
   <g id="PathCollection_22">
    <g clip-path="url(#p7d5116b08d)">
     <use xlink:href="#m85d322c409" x="719.6328" y="170.856" style="fill: #ffffff; stroke: #203c48"/>
    </g>
   </g>
   <g id="PathCollection_23">
    <g clip-path="url(#p7d5116b08d)">
     <use xlink:href="#m85d322c409" x="784.7784" y="170.856" style="fill: #ffffff; stroke: #203c48"/>
    </g>
   </g>
   <g id="PathCollection_24">
    <g clip-path="url(#p7d5116b08d)">
     <use xlink:href="#m85d322c409" x="849.924" y="170.856" style="fill: #ffffff; stroke: #203c48"/>
    </g>
   </g>
   <g id="text_29">
    <text style="font-size: 10px; font-family: 'Arial Unicode MS'; text-anchor: middle; fill: #203c48" x="654.4872" y="87.262332" transform="rotate(-0 654.4872 87.262332)">0</text>
   </g>
   <g id="text_30">
    <text style="font-size: 10px; font-family: 'Arial Unicode MS'; text-anchor: middle; fill: #203c48" x="719.6328" y="87.262332" transform="rotate(-0 719.6328 87.262332)">1</text>
   </g>
   <g id="text_31">
    <text style="font-size: 10px; font-family: 'Arial Unicode MS'; text-anchor: middle; fill: #203c48" x="784.7784" y="87.262332" transform="rotate(-0 784.7784 87.262332)">2</text>
   </g>
   <g id="text_32">
    <text style="font-size: 10px; font-family: 'Arial Unicode MS'; text-anchor: middle; fill: #203c48" x="849.924" y="87.262332" transform="rotate(-0 849.924 87.262332)">3</text>
   </g>
   <g id="text_33">
    <text style="font-size: 10px; font-family: 'Arial Unicode MS'; text-anchor: middle; fill: #203c48" x="654.4872" y="173.446332" transform="rotate(-0 654.4872 173.446332)">4</text>
   </g>
   <g id="text_34">
    <text style="font-size: 10px; font-family: 'Arial Unicode MS'; text-anchor: middle; fill: #203c48" x="719.6328" y="173.446332" transform="rotate(-0 719.6328 173.446332)">5</text>
   </g>
   <g id="text_35">
    <text style="font-size: 10px; font-family: 'Arial Unicode MS'; text-anchor: middle; fill: #203c48" x="784.7784" y="173.446332" transform="rotate(-0 784.7784 173.446332)">6</text>
   </g>
   <g id="text_36">
    <text style="font-size: 10px; font-family: 'Arial Unicode MS'; text-anchor: middle; fill: #203c48" x="849.924" y="173.446332" transform="rotate(-0 849.924 173.446332)">7</text>
   </g>
  </g>
  <g id="axes_4">
   <g id="patch_28">
    <path d="M 99.72 592.2 
L 857.88 592.2 
L 857.88 318.6 
L 99.72 318.6 
z
" style="fill: #ffffff"/>
   </g>
   <g id="patch_29">
    <path d="M 134.181818 592.2 
L 331.106494 592.2 
L 331.106494 534.744 
L 134.181818 534.744 
z
" clip-path="url(#p5ae6e82c1a)" style="fill: #bc722b"/>
   </g>
   <g id="patch_30">
    <path d="M 380.337662 592.2 
L 577.262338 592.2 
L 577.262338 362.376 
L 380.337662 362.376 
z
" clip-path="url(#p5ae6e82c1a)" style="fill: #bc722b"/>
   </g>
   <g id="patch_31">
    <path d="M 626.493506 592.2 
L 823.418182 592.2 
L 823.418182 559.368 
L 626.493506 559.368 
z
" clip-path="url(#p5ae6e82c1a)" style="fill: #bc722b"/>
   </g>
   <g id="patch_32">
    <path d="M 134.181818 534.744 
L 331.106494 534.744 
L 331.106494 362.376 
L 134.181818 362.376 
z
" clip-path="url(#p5ae6e82c1a)" style="fill: #16857b"/>
   </g>
   <g id="patch_33">
    <path d="M 380.337662 362.376 
L 577.262338 362.376 
L 577.262338 362.376 
L 380.337662 362.376 
z
" clip-path="url(#p5ae6e82c1a)" style="fill: #16857b"/>
   </g>
   <g id="patch_34">
    <path d="M 626.493506 559.368 
L 823.418182 559.368 
L 823.418182 362.376 
L 626.493506 362.376 
z
" clip-path="url(#p5ae6e82c1a)" style="fill: #16857b"/>
   </g>
   <g id="matplotlib.axis_1">
    <g id="xtick_1">
     <g id="line2d_1">
      <defs>
       <path id="mb02cb9413b" d="M 0 0 
L 0 3.5 
" style="stroke: #000000; stroke-width: 0.8"/>
      </defs>
      <g>
       <use xlink:href="#mb02cb9413b" x="232.644156" y="592.2" style="stroke: #000000; stroke-width: 0.8"/>
      </g>
     </g>
     <g id="text_37">
      <text style="font-size: 11px; font-family: 'Arial Unicode MS'; text-anchor: middle" x="232.644156" y="608.362656" transform="rotate(-0 232.644156 608.362656)">连续平坦环</text>
     </g>
    </g>
    <g id="xtick_2">
     <g id="line2d_2">
      <g>
       <use xlink:href="#mb02cb9413b" x="478.8" y="592.2" style="stroke: #000000; stroke-width: 0.8"/>
      </g>
     </g>
     <g id="text_38">
      <text style="font-size: 11px; font-family: 'Arial Unicode MS'; text-anchor: middle" x="478.8" y="608.319687" transform="rotate(-0 478.8 608.319687)">交错平坦环</text>
     </g>
    </g>
    <g id="xtick_3">
     <g id="line2d_3">
      <g>
       <use xlink:href="#mb02cb9413b" x="724.955844" y="592.2" style="stroke: #000000; stroke-width: 0.8"/>
      </g>
     </g>
     <g id="text_39">
      <text style="font-size: 11px; font-family: 'Arial Unicode MS'; text-anchor: middle" x="724.955844" y="608.385" transform="rotate(-0 724.955844 608.385)">分层归约</text>
     </g>
    </g>
   </g>
   <g id="matplotlib.axis_2">
    <g id="ytick_1">
     <g id="line2d_4">
      <defs>
       <path id="m32fd507f5d" d="M 0 0 
L -3.5 0 
" style="stroke: #000000; stroke-width: 0.8"/>
      </defs>
      <g>
       <use xlink:href="#m32fd507f5d" x="99.72" y="592.2" style="stroke: #000000; stroke-width: 0.8"/>
      </g>
     </g>
     <g id="text_40">
      <text style="font-size: 11px; font-family: 'Arial Unicode MS'; text-anchor: end" x="92.72" y="596.20415" transform="rotate(-0 92.72 596.20415)">0</text>
     </g>
    </g>
    <g id="ytick_2">
     <g id="line2d_5">
      <g>
       <use xlink:href="#m32fd507f5d" x="99.72" y="534.744" style="stroke: #000000; stroke-width: 0.8"/>
      </g>
     </g>
     <g id="text_41">
      <text style="font-size: 11px; font-family: 'Arial Unicode MS'; text-anchor: end" x="92.72" y="538.74815" transform="rotate(-0 92.72 538.74815)">672</text>
     </g>
    </g>
    <g id="ytick_3">
     <g id="line2d_6">
      <g>
       <use xlink:href="#m32fd507f5d" x="99.72" y="477.288" style="stroke: #000000; stroke-width: 0.8"/>
      </g>
     </g>
     <g id="text_42">
      <text style="font-size: 11px; font-family: 'Arial Unicode MS'; text-anchor: end" x="92.72" y="481.29215" transform="rotate(-0 92.72 481.29215)">1344</text>
     </g>
    </g>
    <g id="ytick_4">
     <g id="line2d_7">
      <g>
       <use xlink:href="#m32fd507f5d" x="99.72" y="419.832" style="stroke: #000000; stroke-width: 0.8"/>
      </g>
     </g>
     <g id="text_43">
      <text style="font-size: 11px; font-family: 'Arial Unicode MS'; text-anchor: end" x="92.72" y="423.83615" transform="rotate(-0 92.72 423.83615)">2016</text>
     </g>
    </g>
    <g id="ytick_5">
     <g id="line2d_8">
      <g>
       <use xlink:href="#m32fd507f5d" x="99.72" y="362.376" style="stroke: #000000; stroke-width: 0.8"/>
      </g>
     </g>
     <g id="text_44">
      <text style="font-size: 11px; font-family: 'Arial Unicode MS'; text-anchor: end" x="92.72" y="366.38015" transform="rotate(-0 92.72 366.38015)">2688</text>
     </g>
    </g>
    <g id="text_45">
     <text style="font-size: 11px; font-family: 'Arial Unicode MS'; text-anchor: middle; fill: #203c48" x="61.942305" y="455.4" transform="rotate(-90 61.942305 455.4)">逻辑发送量 / MiB</text>
    </g>
   </g>
   <g id="patch_35">
    <path d="M 99.72 592.2 
L 99.72 318.6 
" style="fill: none; stroke: #000000; stroke-width: 0.8; stroke-linejoin: miter; stroke-linecap: square"/>
   </g>
   <g id="patch_36">
    <path d="M 99.72 592.2 
L 857.88 592.2 
" style="fill: none; stroke: #000000; stroke-width: 0.8; stroke-linejoin: miter; stroke-linecap: square"/>
   </g>
   <g id="text_46">
    <text style="font-weight: 700; font-size: 11px; font-family: 'Arial Unicode MS'; text-anchor: middle; fill: #ffffff" x="232.644156" y="566.321365" transform="rotate(-0 232.644156 566.321365)">672 MiB</text>
   </g>
   <g id="text_47">
    <text style="font-weight: 700; font-size: 11px; font-family: 'Arial Unicode MS'; text-anchor: middle; fill: #ffffff" x="478.8" y="480.137365" transform="rotate(-0 478.8 480.137365)">2688 MiB</text>
   </g>
   <g id="text_48">
    <text style="font-weight: 700; font-size: 11px; font-family: 'Arial Unicode MS'; text-anchor: middle; fill: #ffffff" x="724.955844" y="578.633365" transform="rotate(-0 724.955844 578.633365)">384 MiB</text>
   </g>
   <g id="legend_1">
    <g id="patch_37">
     <path d="M 698.38 337.748594 
L 720.38 337.748594 
L 720.38 330.048594 
L 698.38 330.048594 
z
" style="fill: #bc722b"/>
    </g>
    <g id="text_49">
     <text style="font-size: 11px; font-family: 'Arial Unicode MS'; text-anchor: start; fill: #203c48" x="729.18" y="337.748594" transform="rotate(-0 729.18 337.748594)">跨服务器</text>
    </g>
    <g id="patch_38">
     <path d="M 795.18 337.748594 
L 817.18 337.748594 
L 817.18 330.048594 
L 795.18 330.048594 
z
" style="fill: #16857b"/>
    </g>
    <g id="text_50">
     <text style="font-size: 11px; font-family: 'Arial Unicode MS'; text-anchor: start; fill: #203c48" x="825.98" y="337.748594" transform="rotate(-0 825.98 337.748594)">本地</text>
    </g>
   </g>
  </g>
 </g>
 <defs>
  <clipPath id="pa6dcde7b8c">
   <rect x="10.8" y="10.8" width="271.44" height="246.24"/>
  </clipPath>
  <clipPath id="p66692a204a">
   <rect x="315" y="10.8" width="271.44" height="246.24"/>
  </clipPath>
  <clipPath id="p7d5116b08d">
   <rect x="619.2" y="10.8" width="271.44" height="246.24"/>
  </clipPath>
  <clipPath id="p5ae6e82c1a">
   <rect x="99.72" y="318.6" width="758.16" height="273.6"/>
  </clipPath>
 </defs>
</svg>
