<?xml version="1.0" encoding="utf-8" standalone="no"?>
<!DOCTYPE svg PUBLIC "-//W3C//DTD SVG 1.1//EN"
  "http://www.w3.org/Graphics/SVG/1.1/DTD/svg11.dtd">
<svg xmlns:xlink="http://www.w3.org/1999/xlink" width="420pt" height="345.6pt" viewBox="0 0 420 345.6" xmlns="http://www.w3.org/2000/svg" version="1.1">
 <metadata>
  <rdf:RDF xmlns:dc="http://purl.org/dc/elements/1.1/" xmlns:cc="http://creativecommons.org/ns#" xmlns:rdf="http://www.w3.org/1999/02/22-rdf-syntax-ns#">
   <cc:Work>
    <dc:type rdf:resource="http://purl.org/dc/dcmitype/StillImage"/>
    <dc:date>2026-09-10T14:10:45.898672</dc:date>
    <dc:format>image/svg+xml</dc:format>
    <dc:creator>
     <cc:Agent>
      <dc:title>Matplotlib v3.11.1, https://matplotlib.org/</dc:title>
     </cc:Agent>
    </dc:creator>
   </cc:Work>
  </rdf:RDF>
 </metadata>
 <defs>
  <style type="text/css">*{stroke-linejoin: round; stroke-linecap: butt}</style>
 </defs>
 <g id="figure_1">
  <g id="patch_1">
   <path d="M 0 345.6 
L 420 345.6 
L 420 0 
L 0 0 
z
" style="fill: #ffffff"/>
  </g>
  <g id="axes_1">
   <g id="patch_2">
    <path d="M 32.6676 122.017536 
L 125.6304 122.017536 
Q 128.7552 122.017536 128.7552 119.446272 
L 128.7552 81.520128 
Q 128.7552 78.948864 125.6304 78.948864 
L 32.6676 78.948864 
Q 29.5428 78.948864 29.5428 81.520128 
L 29.5428 119.446272 
Q 29.5428 122.017536 32.6676 122.017536 
z
" clip-path="url(#p16cc59bdb1)" style="fill: #cbe3f3; stroke: #454545; stroke-width: 0.9; stroke-linejoin: miter"/>
   </g>
   <g id="patch_3">
    <path d="M 165.4716 122.017536 
L 258.4344 122.017536 
Q 261.5592 122.017536 261.5592 119.446272 
L 261.5592 81.520128 
Q 261.5592 78.948864 258.4344 78.948864 
L 165.4716 78.948864 
Q 162.3468 78.948864 162.3468 81.520128 
L 162.3468 119.446272 
Q 162.3468 122.017536 165.4716 122.017536 
z
" clip-path="url(#p16cc59bdb1)" style="fill: #f9dec0; stroke: #454545; stroke-width: 0.9; stroke-linejoin: miter"/>
   </g>
   <g id="patch_4">
    <path d="M 298.2756 122.017536 
L 387.3324 122.017536 
Q 390.4572 122.017536 390.4572 119.446272 
L 390.4572 81.520128 
Q 390.4572 78.948864 387.3324 78.948864 
L 298.2756 78.948864 
Q 295.1508 78.948864 295.1508 81.520128 
L 295.1508 119.446272 
Q 295.1508 122.017536 298.2756 122.017536 
z
" clip-path="url(#p16cc59bdb1)" style="fill: #cfe8db; stroke: #454545; stroke-width: 0.9; stroke-linejoin: miter"/>
   </g>
   <g id="patch_5">
    <path d="M 130.973591 100.4832 
Q 145.549445 100.4832 159.007265 100.4832 
" clip-path="url(#p16cc59bdb1)" style="fill: none; stroke: #454545; stroke-linecap: round"/>
    <path d="M 154.607265 98.2832 
L 159.007265 100.4832 
L 154.607265 102.6832 
z
" clip-path="url(#p16cc59bdb1)" style="fill: #454545; stroke: #454545; stroke-linecap: round"/>
   </g>
   <g id="patch_6">
    <path d="M 263.777591 100.4832 
Q 278.353445 100.4832 291.811265 100.4832 
" clip-path="url(#p16cc59bdb1)" style="fill: none; stroke: #454545; stroke-linecap: round"/>
    <path d="M 287.411265 98.2832 
L 291.811265 100.4832 
L 287.411265 102.6832 
z
" clip-path="url(#p16cc59bdb1)" style="fill: #454545; stroke: #454545; stroke-linecap: round"/>
   </g>
   <g id="patch_7">
    <path d="M 32.6676 269.865216 
L 125.6304 269.865216 
Q 128.7552 269.865216 128.7552 267.293952 
L 128.7552 229.367808 
Q 128.7552 226.796544 125.6304 226.796544 
L 32.6676 226.796544 
Q 29.5428 226.796544 29.5428 229.367808 
L 29.5428 267.293952 
Q 29.5428 269.865216 32.6676 269.865216 
z
" clip-path="url(#p16cc59bdb1)" style="fill: #cbe3f3; stroke: #454545; stroke-width: 0.9; stroke-linejoin: miter"/>
   </g>
   <g id="patch_8">
    <path d="M 165.4716 269.865216 
L 258.4344 269.865216 
Q 261.5592 269.865216 261.5592 267.293952 
L 261.5592 229.367808 
Q 261.5592 226.796544 258.4344 226.796544 
L 165.4716 226.796544 
Q 162.3468 226.796544 162.3468 229.367808 
L 162.3468 267.293952 
Q 162.3468 269.865216 165.4716 269.865216 
z
" clip-path="url(#p16cc59bdb1)" style="fill: #f9dec0; stroke: #454545; stroke-width: 0.9; stroke-linejoin: miter"/>
   </g>
   <g id="patch_9">
    <path d="M 298.2756 269.865216 
L 387.3324 269.865216 
Q 390.4572 269.865216 390.4572 267.293952 
L 390.4572 229.367808 
Q 390.4572 226.796544 387.3324 226.796544 
L 298.2756 226.796544 
Q 295.1508 226.796544 295.1508 229.367808 
L 295.1508 267.293952 
Q 295.1508 269.865216 298.2756 269.865216 
z
" clip-path="url(#p16cc59bdb1)" style="fill: #cfe8db; stroke: #454545; stroke-width: 0.9; stroke-linejoin: miter"/>
   </g>
   <g id="patch_10">
    <path d="M 130.975081 248.33088 
Q 211.954641 248.33088 291.816168 248.33088 
" clip-path="url(#p16cc59bdb1)" style="fill: none; stroke: #454545; stroke-linecap: round"/>
    <path d="M 287.416168 246.13088 
L 291.816168 248.33088 
L 287.416168 250.53088 
z
" clip-path="url(#p16cc59bdb1)" style="fill: #454545; stroke: #454545; stroke-linecap: round"/>
   </g>
   <g id="patch_11">
    <path d="M 212.897792 273.207926 
Q 276.4019 290.113893 338.825603 306.732237 
" clip-path="url(#p16cc59bdb1)" style="fill: none; stroke: #454545; stroke-linecap: round"/>
    <path d="M 335.139663 303.474347 
L 338.825603 306.732237 
L 334.007727 307.726255 
z
" clip-path="url(#p16cc59bdb1)" style="fill: #454545; stroke: #454545; stroke-linecap: round"/>
   </g>
   <g id="text_1">
    <text style="font-size: 14px; font-family: 'Arial Unicode MS'; text-anchor: start; fill: #252525" x="30.324" y="46.409439" transform="rotate(-0 30.324 46.409439)">先展开每个历史位置</text>
   </g>
   <g id="text_2">
    <text style="font-size: 12px; font-family: 'Arial Unicode MS'; text-anchor: middle; fill: #252525" x="79.149" y="105.167888" transform="rotate(-0 79.149 105.167888)">潜变量 c</text>
   </g>
   <g id="text_3">
    <text style="font-size: 12px; font-family: 'Arial Unicode MS'; text-anchor: middle; fill: #252525" x="211.953" y="105.001013" transform="rotate(-0 211.953 105.001013)">展开键 K</text>
   </g>
   <g id="text_4">
    <text style="font-size: 12px; font-family: 'Arial Unicode MS'; text-anchor: middle; fill: #252525" x="342.804" y="105.07695" transform="rotate(-0 342.804 105.07695)">计算分数</text>
   </g>
   <g id="text_5">
    <text style="font-size: 11px; font-family: 'Arial Unicode MS'; text-anchor: start; fill: #252525" x="151.41" y="148.067889" transform="rotate(-0 151.41 148.067889)">各历史位置分别上投影</text>
   </g>
   <g id="text_6">
    <text style="font-size: 14px; font-family: 'Arial Unicode MS'; text-anchor: start; fill: #252525" x="30.324" y="194.308525" transform="rotate(-0 30.324 194.308525)">先变换当前查询</text>
   </g>
   <g id="text_7">
    <text style="font-size: 12px; font-family: 'Arial Unicode MS'; text-anchor: middle; fill: #252525" x="79.149" y="253.015568" transform="rotate(-0 79.149 253.015568)">潜变量 c</text>
   </g>
   <g id="text_8">
    <text style="font-size: 12px; font-family: 'Arial Unicode MS'; text-anchor: middle; fill: #252525" x="211.953" y="252.956505" transform="rotate(-0 211.953 252.956505)">变换后查询</text>
   </g>
   <g id="text_9">
    <text style="font-size: 12px; font-family: 'Arial Unicode MS'; text-anchor: middle; fill: #252525" x="342.804" y="252.92463" transform="rotate(-0 342.804 252.92463)">计算分数</text>
   </g>
   <g id="text_10">
    <text style="font-size: 11px; font-family: 'Arial Unicode MS'; text-anchor: start; fill: #252525" x="30.324" y="313.298244" transform="rotate(-0 30.324 313.298244)">保存 c；当前查询先乘上投影矩阵的转置</text>
   </g>
  </g>
 </g>
 <defs>
  <clipPath id="p16cc59bdb1">
   <rect x="14.7" y="12.096" width="390.6" height="321.408"/>
  </clipPath>
 </defs>
</svg>
