<?xml version="1.0" encoding="utf-8" standalone="no"?>
<!DOCTYPE svg PUBLIC "-//W3C//DTD SVG 1.1//EN"
  "http://www.w3.org/Graphics/SVG/1.1/DTD/svg11.dtd">
<svg xmlns:xlink="http://www.w3.org/1999/xlink" width="1008pt" height="576pt" viewBox="0 0 1008 576" xmlns="http://www.w3.org/2000/svg" version="1.1">
 <metadata>
  <rdf:RDF xmlns:dc="http://purl.org/dc/elements/1.1/" xmlns:cc="http://creativecommons.org/ns#" xmlns:rdf="http://www.w3.org/1999/02/22-rdf-syntax-ns#">
   <cc:Work>
    <dc:type rdf:resource="http://purl.org/dc/dcmitype/StillImage"/>
    <dc:date>2026-09-10T14:10:42.174735</dc:date>
    <dc:format>image/svg+xml</dc:format>
    <dc:creator>
     <cc:Agent>
      <dc:title>Matplotlib v3.11.1, https://matplotlib.org/</dc:title>
     </cc:Agent>
    </dc:creator>
   </cc:Work>
  </rdf:RDF>
 </metadata>
 <defs>
  <style type="text/css">*{stroke-linejoin: round; stroke-linecap: butt}</style>
 </defs>
 <g id="figure_1">
  <g id="patch_1">
   <path d="M 0 576 
L 1008 576 
L 1008 0 
L 0 0 
z
" style="fill: #ffffff"/>
  </g>
  <g id="axes_1">
   <g id="patch_2">
    <path d="M 101.36 162.2592 
L 424.106667 162.2592 
L 424.106667 121.3632 
L 101.36 121.3632 
z
" clip-path="url(#pdc109f6175)" style="fill: #246f91; opacity: 0.13; stroke: #246f91; stroke-width: 1.5; stroke-linejoin: miter"/>
   </g>
   <g id="patch_3">
    <path d="M 262.733333 172.440766 
Q 262.733333 184.753777 262.733333 195.389736 
" clip-path="url(#pdc109f6175)" style="fill: none; stroke: #193441; stroke-width: 1.5; stroke-linecap: round"/>
    <path d="M 265.733333 189.389736 
L 262.733333 195.389736 
L 259.733333 189.389736 
z
" clip-path="url(#pdc109f6175)" style="fill: #193441; stroke: #193441; stroke-width: 1.5; stroke-linecap: round"/>
   </g>
   <g id="patch_4">
    <path d="M 84.373333 284.9472 
L 120.47 284.9472 
L 120.47 262.4544 
L 84.373333 262.4544 
z
" clip-path="url(#pdc109f6175)" style="fill: #138b83; opacity: 0.13; stroke: #138b83; stroke-width: 1.5; stroke-linejoin: miter"/>
   </g>
   <g id="patch_5">
    <path d="M 128.963333 284.9472 
L 165.06 284.9472 
L 165.06 262.4544 
L 128.963333 262.4544 
z
" clip-path="url(#pdc109f6175)" style="fill: #138b83; opacity: 0.13; stroke: #138b83; stroke-width: 1.5; stroke-linejoin: miter"/>
   </g>
   <g id="patch_6">
    <path d="M 173.553333 284.9472 
L 209.65 284.9472 
L 209.65 262.4544 
L 173.553333 262.4544 
z
" clip-path="url(#pdc109f6175)" style="fill: #138b83; opacity: 0.13; stroke: #138b83; stroke-width: 1.5; stroke-linejoin: miter"/>
   </g>
   <g id="patch_7">
    <path d="M 218.143333 284.9472 
L 254.24 284.9472 
L 254.24 262.4544 
L 218.143333 262.4544 
z
" clip-path="url(#pdc109f6175)" style="fill: #138b83; opacity: 0.13; stroke: #138b83; stroke-width: 1.5; stroke-linejoin: miter"/>
   </g>
   <g id="patch_8">
    <path d="M 262.733333 284.9472 
L 298.83 284.9472 
L 298.83 262.4544 
L 262.733333 262.4544 
z
" clip-path="url(#pdc109f6175)" style="fill: #138b83; opacity: 0.13; stroke: #138b83; stroke-width: 1.5; stroke-linejoin: miter"/>
   </g>
   <g id="patch_9">
    <path d="M 307.323333 284.9472 
L 343.42 284.9472 
L 343.42 262.4544 
L 307.323333 262.4544 
z
" clip-path="url(#pdc109f6175)" style="fill: #138b83; opacity: 0.13; stroke: #138b83; stroke-width: 1.5; stroke-linejoin: miter"/>
   </g>
   <g id="patch_10">
    <path d="M 351.913333 284.9472 
L 388.01 284.9472 
L 388.01 262.4544 
L 351.913333 262.4544 
z
" clip-path="url(#pdc109f6175)" style="fill: #138b83; opacity: 0.13; stroke: #138b83; stroke-width: 1.5; stroke-linejoin: miter"/>
   </g>
   <g id="patch_11">
    <path d="M 396.503333 284.9472 
L 432.6 284.9472 
L 432.6 262.4544 
L 396.503333 262.4544 
z
" clip-path="url(#pdc109f6175)" style="fill: #138b83; opacity: 0.13; stroke: #138b83; stroke-width: 1.5; stroke-linejoin: miter"/>
   </g>
   <g id="patch_12">
    <path d="M 84.373333 252.2304 
L 120.47 252.2304 
L 120.47 229.7376 
L 84.373333 229.7376 
z
" clip-path="url(#pdc109f6175)" style="fill: #138b83; opacity: 0.13; stroke: #138b83; stroke-width: 1.5; stroke-linejoin: miter"/>
   </g>
   <g id="patch_13">
    <path d="M 128.963333 252.2304 
L 165.06 252.2304 
L 165.06 229.7376 
L 128.963333 229.7376 
z
" clip-path="url(#pdc109f6175)" style="fill: #138b83; opacity: 0.13; stroke: #138b83; stroke-width: 1.5; stroke-linejoin: miter"/>
   </g>
   <g id="patch_14">
    <path d="M 173.553333 252.2304 
L 209.65 252.2304 
L 209.65 229.7376 
L 173.553333 229.7376 
z
" clip-path="url(#pdc109f6175)" style="fill: #138b83; opacity: 0.13; stroke: #138b83; stroke-width: 1.5; stroke-linejoin: miter"/>
   </g>
   <g id="patch_15">
    <path d="M 218.143333 252.2304 
L 254.24 252.2304 
L 254.24 229.7376 
L 218.143333 229.7376 
z
" clip-path="url(#pdc109f6175)" style="fill: #138b83; opacity: 0.13; stroke: #138b83; stroke-width: 1.5; stroke-linejoin: miter"/>
   </g>
   <g id="patch_16">
    <path d="M 262.733333 252.2304 
L 298.83 252.2304 
L 298.83 229.7376 
L 262.733333 229.7376 
z
" clip-path="url(#pdc109f6175)" style="fill: #138b83; opacity: 0.13; stroke: #138b83; stroke-width: 1.5; stroke-linejoin: miter"/>
   </g>
   <g id="patch_17">
    <path d="M 307.323333 252.2304 
L 343.42 252.2304 
L 343.42 229.7376 
L 307.323333 229.7376 
z
" clip-path="url(#pdc109f6175)" style="fill: #138b83; opacity: 0.13; stroke: #138b83; stroke-width: 1.5; stroke-linejoin: miter"/>
   </g>
   <g id="patch_18">
    <path d="M 351.913333 252.2304 
L 388.01 252.2304 
L 388.01 229.7376 
L 351.913333 229.7376 
z
" clip-path="url(#pdc109f6175)" style="fill: #138b83; opacity: 0.13; stroke: #138b83; stroke-width: 1.5; stroke-linejoin: miter"/>
   </g>
   <g id="patch_19">
    <path d="M 396.503333 252.2304 
L 432.6 252.2304 
L 432.6 229.7376 
L 396.503333 229.7376 
z
" clip-path="url(#pdc109f6175)" style="fill: #138b83; opacity: 0.13; stroke: #138b83; stroke-width: 1.5; stroke-linejoin: miter"/>
   </g>
   <g id="patch_20">
    <path d="M 101.36 407.6352 
L 424.106667 407.6352 
L 424.106667 358.56 
L 101.36 358.56 
z
" clip-path="url(#pdc109f6175)" style="fill: #c9782b; opacity: 0.13; stroke: #c9782b; stroke-width: 1.5; stroke-linejoin: miter"/>
   </g>
   <g id="text_1">
    <text style="font-weight: 700; font-size: 15px; font-family: 'Arial Unicode MS'; text-anchor: start; fill: #193441" x="58.893333" y="88.947131" transform="rotate(-0 58.893333 88.947131)">A  均匀分到 256 个专家</text>
   </g>
   <g id="text_2">
    <text style="font-size: 12px; font-family: 'Arial Unicode MS'; text-anchor: middle; fill: #193441" x="262.733333" y="146.021512" transform="rotate(-0 262.733333 146.021512)">64 个 token，每个选 8 个专家</text>
   </g>
   <g id="text_3">
    <text style="font-size: 12px; font-family: 'Arial Unicode MS'; text-anchor: middle; fill: #193441" x="262.733333" y="321.7536" transform="rotate(-0 262.733333 321.7536)">256 个小矩阵，每个处理 2 行</text>
   </g>
   <g id="text_4">
    <text style="font-size: 12px; font-family: 'Arial Unicode MS'; fill: #193441" transform="translate(213.389896 378.730725)">共 512 行专家输入</text>
    <text style="font-size: 12px; font-family: 'Arial Unicode MS'; fill: #193441" transform="translate(193.057396 396.804787)">不同专家权重合计 1.5 GiB</text>
   </g>
  </g>
  <g id="axes_2">
   <g id="patch_21">
    <path d="M 593.973333 162.2592 
L 916.72 162.2592 
L 916.72 121.3632 
L 593.973333 121.3632 
z
" clip-path="url(#pfaaf1e7710)" style="fill: #246f91; opacity: 0.13; stroke: #246f91; stroke-width: 1.5; stroke-linejoin: miter"/>
   </g>
   <g id="patch_22">
    <path d="M 755.346667 172.440766 
Q 755.346667 184.753777 755.346667 195.389736 
" clip-path="url(#pfaaf1e7710)" style="fill: none; stroke: #193441; stroke-width: 1.5; stroke-linecap: round"/>
    <path d="M 758.346667 189.389736 
L 755.346667 195.389736 
L 752.346667 189.389736 
z
" clip-path="url(#pfaaf1e7710)" style="fill: #193441; stroke: #193441; stroke-width: 1.5; stroke-linecap: round"/>
   </g>
   <g id="patch_23">
    <path d="M 576.986667 289.0368 
L 613.083333 289.0368 
L 613.083333 211.3344 
L 576.986667 211.3344 
z
" clip-path="url(#pfaaf1e7710)" style="fill: #138b83; opacity: 0.13; stroke: #138b83; stroke-width: 1.5; stroke-linejoin: miter"/>
   </g>
   <g id="patch_24">
    <path d="M 621.576667 289.0368 
L 657.673333 289.0368 
L 657.673333 211.3344 
L 621.576667 211.3344 
z
" clip-path="url(#pfaaf1e7710)" style="fill: #138b83; opacity: 0.13; stroke: #138b83; stroke-width: 1.5; stroke-linejoin: miter"/>
   </g>
   <g id="patch_25">
    <path d="M 666.166667 289.0368 
L 702.263333 289.0368 
L 702.263333 211.3344 
L 666.166667 211.3344 
z
" clip-path="url(#pfaaf1e7710)" style="fill: #138b83; opacity: 0.13; stroke: #138b83; stroke-width: 1.5; stroke-linejoin: miter"/>
   </g>
   <g id="patch_26">
    <path d="M 710.756667 289.0368 
L 746.853333 289.0368 
L 746.853333 211.3344 
L 710.756667 211.3344 
z
" clip-path="url(#pfaaf1e7710)" style="fill: #138b83; opacity: 0.13; stroke: #138b83; stroke-width: 1.5; stroke-linejoin: miter"/>
   </g>
   <g id="patch_27">
    <path d="M 755.346667 289.0368 
L 791.443333 289.0368 
L 791.443333 211.3344 
L 755.346667 211.3344 
z
" clip-path="url(#pfaaf1e7710)" style="fill: #138b83; opacity: 0.13; stroke: #138b83; stroke-width: 1.5; stroke-linejoin: miter"/>
   </g>
   <g id="patch_28">
    <path d="M 799.936667 289.0368 
L 836.033333 289.0368 
L 836.033333 211.3344 
L 799.936667 211.3344 
z
" clip-path="url(#pfaaf1e7710)" style="fill: #138b83; opacity: 0.13; stroke: #138b83; stroke-width: 1.5; stroke-linejoin: miter"/>
   </g>
   <g id="patch_29">
    <path d="M 844.526667 289.0368 
L 880.623333 289.0368 
L 880.623333 211.3344 
L 844.526667 211.3344 
z
" clip-path="url(#pfaaf1e7710)" style="fill: #138b83; opacity: 0.13; stroke: #138b83; stroke-width: 1.5; stroke-linejoin: miter"/>
   </g>
   <g id="patch_30">
    <path d="M 889.116667 289.0368 
L 925.213333 289.0368 
L 925.213333 211.3344 
L 889.116667 211.3344 
z
" clip-path="url(#pfaaf1e7710)" style="fill: #138b83; opacity: 0.13; stroke: #138b83; stroke-width: 1.5; stroke-linejoin: miter"/>
   </g>
   <g id="patch_31">
    <path d="M 593.973333 407.6352 
L 916.72 407.6352 
L 916.72 358.56 
L 593.973333 358.56 
z
" clip-path="url(#pfaaf1e7710)" style="fill: #c9782b; opacity: 0.13; stroke: #c9782b; stroke-width: 1.5; stroke-linejoin: miter"/>
   </g>
   <g id="text_5">
    <text style="font-weight: 700; font-size: 15px; font-family: 'Arial Unicode MS'; text-anchor: start; fill: #193441" x="551.506667" y="88.858069" transform="rotate(-0 551.506667 88.858069)">B  集中分到同 8 个专家</text>
   </g>
   <g id="text_6">
    <text style="font-size: 12px; font-family: 'Arial Unicode MS'; text-anchor: middle; fill: #193441" x="755.346667" y="146.021512" transform="rotate(-0 755.346667 146.021512)">64 个 token，每个选 8 个专家</text>
   </g>
   <g id="text_7">
    <text style="font-size: 12px; font-family: 'Arial Unicode MS'; text-anchor: middle; fill: #193441" x="755.346667" y="321.7536" transform="rotate(-0 755.346667 321.7536)">8 个大矩阵，每个处理 64 行</text>
   </g>
   <g id="text_8">
    <text style="font-size: 12px; font-family: 'Arial Unicode MS'; fill: #193441" transform="translate(706.003229 378.730725)">共 512 行专家输入</text>
    <text style="font-size: 12px; font-family: 'Arial Unicode MS'; fill: #193441" transform="translate(687.006667 396.804787)">不同专家权重合计 48 MiB</text>
   </g>
  </g>
 </g>
 <defs>
  <clipPath id="pdc109f6175">
   <rect x="50.4" y="51.84" width="424.666667" height="408.96"/>
  </clipPath>
  <clipPath id="pfaaf1e7710">
   <rect x="543.013333" y="51.84" width="424.666667" height="408.96"/>
  </clipPath>
 </defs>
</svg>
